<svg width="911" height="802" viewBox="0 0 911 802" fill="none" xmlns="http://www.w3.org/2000/svg">
<rect width="911" height="802" fill="white"/>
<g clip-path="url(#clip0)">
<path d="M771.169 298.167C727.882 127.951 578.309 5.0783 402.744 0.149992C309.928 -2.45545 212.259 28.3275 141.15 136.048C14.033 328.611 148.961 461.678 243.029 524.908C288.476 555.518 329.426 592.324 364.693 634.259C428.233 709.659 550.469 803.355 696.048 656.548C801.563 550.143 800.003 411.548 771.169 298.167Z" fill="#F2F2F2"/>
<path d="M455 753.723C706.29 753.723 910 743.425 910 730.723C910 718.02 706.29 707.723 455 707.723C203.71 707.723 0 718.02 0 730.723C0 743.425 203.71 753.723 455 753.723Z" fill="#3F3D56"/>
<path d="M732.182 777.723C830.513 777.723 910.225 773.693 910.225 768.723C910.225 763.752 830.513 759.723 732.182 759.723C633.851 759.723 554.138 763.752 554.138 768.723C554.138 773.693 633.851 777.723 732.182 777.723Z" fill="#3F3D56"/>
<path d="M396.056 801.723C494.386 801.723 574.099 797.693 574.099 792.723C574.099 787.752 494.386 783.723 396.056 783.723C297.725 783.723 218.012 787.752 218.012 792.723C218.012 797.693 297.725 801.723 396.056 801.723Z" fill="#3F3D56"/>
<path d="M681.378 350.165C681.378 350.165 711.624 349.724 705.18 358.819C698.736 367.914 673.736 367.279 673.736 367.279L681.378 350.165Z" fill="#FFB9B9"/>
<path d="M588.341 238.011L618.95 279.569L645.414 311.186C645.414 311.186 672.835 339.789 675.893 343.745C678.951 347.7 687.935 346.569 686.023 352.598C684.111 358.626 681.257 368.669 678.272 369.713C675.287 370.756 661.259 368.961 660.23 366.976C659.201 364.99 593.653 327.943 570.262 301.281L548 286.171L547.666 260.607L588.341 238.011Z" fill="#536DFE"/>
<path d="M588.341 238.011L618.95 279.569L645.414 311.186C645.414 311.186 672.835 339.789 675.893 343.745C678.951 347.7 687.935 346.569 686.023 352.598C684.111 358.626 681.257 368.669 678.272 369.713C675.287 370.756 661.259 368.961 660.23 366.976C659.201 364.99 593.653 327.943 570.262 301.281L548 286.171L547.666 260.607L588.341 238.011Z" fill="#D500F9"/>
<path opacity="0.1" d="M618.548 279.865L618.557 279.878L618.567 279.89L645.031 311.507L645.042 311.52L645.053 311.532L645.176 311.415C645.054 311.532 645.054 311.532 645.054 311.532L645.055 311.533L645.058 311.537L645.073 311.553L645.132 311.614L645.362 311.854C645.564 312.064 645.86 312.373 646.237 312.768C646.993 313.558 648.076 314.691 649.385 316.062C652.003 318.805 655.526 322.504 659.144 326.326C666.395 333.985 673.988 342.098 675.497 344.05C676.339 345.139 677.566 345.851 678.834 346.407C679.471 346.686 680.133 346.932 680.776 347.165C680.877 347.201 680.978 347.238 681.078 347.274C681.618 347.469 682.14 347.658 682.634 347.857C683.822 348.337 684.749 348.844 685.281 349.533C685.779 350.177 685.987 351.057 685.546 352.447C685.362 353.029 685.169 353.647 684.968 354.29C684.125 356.988 683.148 360.117 682.084 362.843C681.425 364.53 680.741 366.04 680.046 367.187C679.699 367.759 679.356 368.229 679.021 368.58C678.684 368.934 678.378 369.146 678.107 369.241C677.798 369.349 677.305 369.431 676.647 369.477C675.997 369.523 675.218 369.531 674.353 369.505C672.624 369.453 670.577 369.266 668.587 368.985C666.596 368.703 664.678 368.329 663.201 367.907C662.461 367.695 661.848 367.475 661.397 367.256C661.171 367.147 660.998 367.043 660.873 366.947C660.744 366.849 660.691 366.779 660.674 366.745C660.622 366.646 660.547 366.563 660.491 366.506C660.428 366.442 660.352 366.374 660.268 366.304C660.099 366.163 659.873 365.993 659.597 365.797C659.046 365.403 658.27 364.885 657.3 364.257C655.36 362.999 652.619 361.283 649.293 359.199L649.259 359.178C642.607 355.011 633.605 349.372 623.907 342.965C604.462 330.118 582.283 314.225 570.638 300.952L570.596 300.904L570.543 300.868L548.496 285.904L548.17 260.899L588.199 238.662L618.548 279.865Z" fill="black" stroke="black"/>
<path d="M601 218.723L607.364 233.723H613L605 195.723C605 171.332 593.228 150.723 568.837 150.723H568.836C560.658 150.723 552.815 153.972 547.032 159.755C541.249 165.538 538 173.381 538 181.559V218.827C538 222.778 539.569 226.567 542.363 229.36C545.156 232.153 548.945 233.723 552.895 233.723H596.625L601 218.723Z" fill="#2F2E41"/>
<path d="M497.5 602.223C497.5 602.223 488.5 614.223 488.5 617.223C488.5 620.223 483.5 621.223 480.5 624.223C477.5 627.223 474.5 626.223 476.5 629.223C478.5 632.223 451.5 650.223 451.5 650.223L425.5 684.223L432.5 690.223L452.5 669.223L449.5 706.223L477.5 732.223C477.5 732.223 489.5 734.223 490.5 732.223C491.5 730.223 480.5 710.223 480.5 710.223C480.5 710.223 481.5 692.223 487.5 685.223C491.222 680.846 494.567 676.163 497.5 671.223C497.5 671.223 494.5 667.223 501.5 666.223C508.5 665.223 503.5 659.223 503.5 659.223C503.5 659.223 505.5 658.223 511.5 658.223C517.5 658.223 544.5 629.223 544.5 629.223L497.5 602.223Z" fill="#2F2E41"/>
<path d="M609.5 633.223C609.5 633.223 605.5 647.223 612.5 655.223C619.5 663.223 612.5 661.223 612.5 661.223C612.5 661.223 613.5 667.223 609.5 670.223C605.5 673.223 605.5 679.223 605.5 679.223C605.5 679.223 600.5 689.223 601.5 695.223C602.5 701.223 602.5 731.223 602.5 731.223H612.5V705.223L632.5 731.223H682.5C682.5 731.223 681.5 726.223 676.5 725.223C671.5 724.223 656.5 725.223 653.5 704.223C653.5 704.223 652.5 692.223 650.5 690.223C648.5 688.223 646.5 681.223 648.5 676.223C650.5 671.223 648.5 669.223 651.5 667.223C654.5 665.223 655.5 659.223 653.5 656.223C651.5 653.223 645.5 648.223 652.5 645.223C659.5 642.223 659.5 627.223 659.5 627.223L609.5 633.223Z" fill="#2F2E41"/>
<path d="M543.5 393.223C543.5 393.223 532.5 402.223 546.5 439.223C560.5 476.223 566.5 524.223 566.5 524.223C566.5 524.223 552.5 536.223 552.5 542.223C552.5 548.223 490.5 586.223 494.5 603.223C498.5 620.223 571.5 652.223 578.5 650.223C585.5 648.223 619.5 552.223 619.5 552.223C619.5 552.223 606.5 446.223 605.5 445.223C604.5 444.223 574.5 395.223 574.5 395.223L556.5 358.223L543.5 393.223Z" fill="#2F2E41"/>
<path opacity="0.1" d="M543.5 393.223C543.5 393.223 532.5 402.223 546.5 439.223C560.5 476.223 566.5 524.223 566.5 524.223C566.5 524.223 552.5 536.223 552.5 542.223C552.5 548.223 490.5 586.223 494.5 603.223C498.5 620.223 571.5 652.223 578.5 650.223C585.5 648.223 619.5 552.223 619.5 552.223C619.5 552.223 606.5 446.223 605.5 445.223C604.5 444.223 574.5 395.223 574.5 395.223L556.5 358.223L543.5 393.223Z" fill="black"/>
<path d="M542.5 370.223C542.5 370.223 534.5 399.223 553.5 429.223C572.5 459.223 594.5 521.223 594.5 521.223C594.5 521.223 615.5 586.223 606.5 633.223C606.5 633.223 603.5 639.223 611.5 639.223C619.5 639.223 703.5 637.223 696.5 616.223C689.5 595.223 658.5 497.223 658.5 497.223L618.5 398.223L616.5 368.223L601.5 345.223H570.5L542.5 370.223Z" fill="#2F2E41"/>
<path d="M402.609 400.223C402.609 400.223 372.36 400.223 378.935 409.223C385.511 418.223 410.5 417.223 410.5 417.223L402.609 400.223Z" fill="#FFB9B9"/>
<path d="M561 193.723C561 193.723 563 207.723 556 209.723C549 211.723 584 226.723 584 226.723C584 226.723 591 202.723 594 199.723C597 196.723 561 193.723 561 193.723Z" fill="#FFB9B9"/>
<path opacity="0.1" d="M561 193.723C561 193.723 563 207.723 556 209.723C549 211.723 584 226.723 584 226.723C584 226.723 591 202.723 594 199.723C597 196.723 561 193.723 561 193.723Z" fill="black"/>
<path d="M589 216.723C589 216.723 558 207.723 557 204.723C556 201.723 549 208.723 546 213.723C543 218.723 537 224.723 534 224.723C531 224.723 509 237.723 504 260.723C501.711 271.252 498.374 277.38 495.429 280.93C493.215 283.829 491.869 287.297 491.546 290.931C491.532 291.099 491.473 291.26 491.378 291.399C491.282 291.538 491.152 291.649 491 291.723C489 292.723 533 334.723 533 334.723C533 334.723 550 330.723 553 334.723C556 338.723 551 345.723 548 349.723C545 353.723 538 373.723 542 376.723C546 379.723 567 349.723 579 355.723C591 361.723 603 356.723 603 356.723C603 356.723 608 372.723 616 372.723C624 372.723 626 359.723 623 355.723C620 351.723 608 343.723 614 332.723C620 321.723 622 301.723 622 301.723C622 301.723 638 282.723 609 259.723C609 259.723 599 231.723 596 229.723C593 227.723 588 226.723 588 224.723C588 222.723 589 216.723 589 216.723Z" fill="#D500F9"/>
<path d="M494 286.723L464 328.723L438 360.723C438 360.723 411 389.723 408 393.723C405 397.723 396 396.723 398 402.723C400 408.723 403 418.723 406 419.723C409 420.723 423 418.723 424 416.723C425 414.723 490 376.723 513 349.723L535.039 334.29L535 308.723L494 286.723Z" fill="#D500F9"/>
<path d="M554.592 335.8L612.558 337.65C613.212 337.669 613.833 337.943 614.289 338.413C614.745 338.882 615 339.511 615 340.166V341.091C615 341.431 614.931 341.767 614.797 342.08C614.664 342.392 614.468 342.675 614.222 342.91C613.977 343.145 613.686 343.327 613.368 343.447C613.049 343.566 612.71 343.62 612.37 343.605L554.404 340.83C553.757 340.801 553.146 340.524 552.698 340.055C552.25 339.587 552 338.964 552 338.316V338.316C552 337.979 552.068 337.646 552.199 337.335C552.33 337.025 552.522 336.744 552.764 336.51C553.006 336.275 553.292 336.092 553.606 335.97C553.92 335.848 554.255 335.79 554.592 335.8Z" fill="#2F2E41"/>
<path d="M614 346.723C614.552 346.723 615 344.26 615 341.223C615 338.185 614.552 335.723 614 335.723C613.448 335.723 613 338.185 613 341.223C613 344.26 613.448 346.723 614 346.723Z" fill="#2F2E41"/>
<path d="M581 209.723C596.464 209.723 609 197.187 609 181.723C609 166.259 596.464 153.723 581 153.723C565.536 153.723 553 166.259 553 181.723C553 197.187 565.536 209.723 581 209.723Z" fill="#FFB9B9"/>
<path d="M592.703 152.06C587.278 150.685 574.414 150.723 572.531 150.723C567.997 150.723 563.506 151.616 559.317 153.351C555.127 155.087 551.321 157.63 548.114 160.837C544.907 164.043 542.364 167.85 540.629 172.04C538.893 176.229 538 180.72 538 185.254L525 233.723H550.304L555 215.723L561.667 233.723H574.405L575.5 222.906L579.811 233.723H594C583.374 209.679 577.721 187.762 591.682 174.235C601.109 175.519 609.061 172.994 610.356 167.883C611.849 161.994 603.945 154.91 592.703 152.06Z" fill="#2F2E41"/>
<path d="M32.9 323.323C30.4375 323.332 28.016 322.693 25.8794 321.469C23.7427 320.244 21.9665 318.479 20.7295 316.35C19.4925 314.22 18.8385 311.803 18.8333 309.34C18.8281 306.878 19.472 304.457 20.7 302.323C38.5 272.323 92.6 202.223 210.8 202.223C262 202.223 306.9 215.823 344.2 242.623C374.9 264.623 392.1 289.523 400.3 301.523C401.34 303.037 402.069 304.741 402.446 306.539C402.823 308.336 402.84 310.19 402.496 311.994C402.152 313.798 401.454 315.516 400.442 317.049C399.43 318.581 398.124 319.898 396.6 320.923C393.501 323 389.709 323.776 386.043 323.084C382.377 322.392 379.129 320.287 377 317.223C362.1 295.623 316.9 230.023 210.8 230.023C107.2 230.023 60.4 290.423 45.1 316.323C43.8806 318.476 42.1048 320.262 39.9585 321.493C37.8122 322.725 35.3743 323.357 32.9 323.323V323.323Z" fill="#3273DC"/>
<path d="M270.3 597.723C269.121 597.738 267.945 597.604 266.8 597.323C181.1 575.823 149.1 489.223 147.8 485.623L147.6 484.823C146.9 482.323 129.7 422.923 156.1 388.123C168.2 372.223 186.6 364.123 210.9 364.123C233.5 364.123 249.8 371.223 261 385.923C270.2 397.923 273.9 412.723 277.5 427.023C285 456.723 290.4 472.323 321.6 473.923C335.3 474.623 344.3 466.523 349.4 459.623C363.2 440.823 365.6 410.123 355.2 383.123C341.8 348.123 294.4 282.223 210.8 282.223C175.1 282.223 142.3 293.823 116 315.623C94.2 333.723 76.9 359.223 68.6 385.423C53.2 434.223 73.4 510.923 73.6 511.623C74.0701 513.396 74.1838 515.245 73.9345 517.062C73.6853 518.879 73.0781 520.629 72.1481 522.21C71.2181 523.791 69.9837 525.172 68.5164 526.273C67.0491 527.373 65.3781 528.172 63.6 528.623C59.9941 529.575 56.1585 529.07 52.9216 527.217C49.6847 525.365 47.3063 522.314 46.3 518.723C45.4 515.223 23.8 433.423 41.6 377.023C61 315.923 120.8 254.323 210.8 254.323C252.4 254.323 291.7 268.623 324.5 295.623C349.9 316.623 370.7 344.823 381.5 373.023C395.3 409.023 391.6 449.423 372.1 475.823C359.1 493.423 340.6 502.623 320.1 501.623C266.7 498.923 257.1 461.223 250.1 433.723C242.9 405.523 238.3 391.923 210.8 391.923C195.7 391.923 185.1 396.123 178.5 404.823C169.5 416.723 168.8 435.323 169.8 448.823C169.81 448.964 169.82 449.105 169.831 449.245C171.154 466.42 176.354 483.072 185.041 497.947C198.923 521.883 227.082 558.592 273.8 570.323C275.584 570.755 277.265 571.536 278.745 572.621C280.225 573.707 281.475 575.075 282.424 576.646C283.372 578.217 284 579.961 284.27 581.777C284.541 583.592 284.449 585.443 284 587.223C283.188 590.235 281.405 592.896 278.929 594.794C276.453 596.692 273.42 597.721 270.3 597.723V597.723Z" fill="#3273DC"/>
<path d="M160.3 591.323C158.375 591.324 156.47 590.934 154.699 590.178C152.929 589.422 151.33 588.314 150 586.923C115.7 550.523 96.3 509.823 89 458.923V458.623C84.9 424.923 90.9 377.223 120.3 344.423C142 320.223 172.5 307.923 210.8 307.923C256.1 307.923 291.7 329.223 313.9 369.423C323.933 387.911 330.507 408.074 333.3 428.923C333.63 432.62 332.49 436.299 330.129 439.163C327.767 442.028 324.373 443.847 320.68 444.228C316.987 444.609 313.293 443.521 310.396 441.2C307.499 438.878 305.633 435.51 305.2 431.823C302.767 414.391 297.176 397.549 288.7 382.123C271.5 351.423 245.3 335.823 210.7 335.823C180.8 335.823 157.4 344.923 141.3 362.923C118.1 388.823 113.6 428.723 116.8 455.123C123.2 500.123 140.3 535.923 170.5 567.923C171.761 569.255 172.744 570.826 173.392 572.542C174.04 574.258 174.34 576.086 174.275 577.919C174.21 579.753 173.781 581.555 173.012 583.221C172.244 584.887 171.152 586.383 169.8 587.623C167.201 589.991 163.816 591.309 160.3 591.323V591.323Z" fill="#536DFE"/>
<path d="M211 460.723C220.941 460.723 229 452.664 229 442.723C229 432.782 220.941 424.723 211 424.723C201.059 424.723 193 432.782 193 442.723C193 452.664 201.059 460.723 211 460.723Z" fill="#536DFE"/>
</g>
<defs>
<clipPath id="clip0">
<rect width="910.225" height="801.723" fill="white"/>
</clipPath>
</defs>
</svg>
