<?xml version="1.0" standalone="no"?>
<!DOCTYPE svg PUBLIC "-//W3C//DTD SVG 20010904//EN"
 "http://www.w3.org/TR/2001/REC-SVG-20010904/DTD/svg10.dtd">
<svg version="1.0" xmlns="http://www.w3.org/2000/svg"
 width="512.000000pt" height="512.000000pt" viewBox="0 0 512.000000 512.000000"
 preserveAspectRatio="xMidYMid meet">
<metadata>
Created by potrace 1.11, written by Peter Selinger 2001-2013
</metadata>
<g transform="translate(0.000000,512.000000) scale(0.100000,-0.100000)"
fill="#000000" stroke="none">
<path d="M2499 4937 c-103 -30 -181 -96 -228 -197 -22 -46 -26 -69 -26 -140 0
-76 4 -93 33 -152 37 -76 92 -130 167 -164 41 -19 81 -26 186 -34 211 -16 343
-48 504 -126 324 -155 543 -421 637 -774 29 -108 36 -361 14 -490 -89 -509
-484 -909 -994 -1006 -116 -22 -329 -22 -444 0 -370 71 -691 304 -863 629
-103 192 -145 361 -145 580 0 327 106 606 319 839 28 31 63 79 78 109 24 47
28 65 27 144 0 78 -3 98 -27 147 -36 73 -97 134 -172 169 -50 24 -73 29 -137
29 -150 0 -243 -62 -393 -262 -218 -288 -346 -612 -385 -968 -8 -75 -10 -496
-8 -1470 l3 -1365 26 -56 c55 -117 164 -195 288 -206 137 -13 281 72 343 202
l28 60 0 573 c0 314 2 572 5 572 3 0 37 -25 76 -55 484 -374 1170 -486 1766
-289 724 239 1241 890 1314 1654 51 540 -128 1064 -500 1462 -231 247 -568
443 -920 533 -199 51 -483 77 -572 52z"/>
<path d="M2512 3558 c-80 -11 -149 -38 -220 -87 -69 -47 -99 -78 -145 -151
-50 -80 -69 -143 -75 -246 -8 -161 33 -275 141 -390 178 -191 477 -216 688
-57 157 118 239 339 195 526 -63 270 -312 442 -584 405z"/>
</g>
</svg>
