<?xml version="1.0" standalone="no"?>
<!DOCTYPE svg PUBLIC "-//W3C//DTD SVG 20010904//EN"
 "http://www.w3.org/TR/2001/REC-SVG-20010904/DTD/svg10.dtd">
<svg version="1.0" xmlns="http://www.w3.org/2000/svg"
 width="512.000000pt" height="512.000000pt" viewBox="0 0 512.000000 512.000000"
 preserveAspectRatio="xMidYMid meet">
<metadata>
Created by potrace 1.11, written by Peter Selinger 2001-2013
</metadata>
<g transform="translate(0.000000,512.000000) scale(0.100000,-0.100000)"
fill="#000000" stroke="none">
<path d="M446 5084 c-144 -35 -289 -148 -359 -281 -72 -138 -68 28 -65 -2270
l3 -2068 23 -59 c65 -173 186 -292 358 -353 l79 -28 2037 -3 c2258 -3 2110 -7
2257 63 96 46 201 150 249 247 66 135 63 -2 60 2266 l-3 2057 -22 58 c-73 192
-222 329 -404 372 -93 22 -4122 21 -4213 -1z m2394 -694 c635 -78 1139 -523
1270 -1120 75 -341 32 -680 -127 -992 -234 -461 -677 -760 -1196 -809 -216
-20 -457 14 -665 95 -123 47 -176 76 -302 160 l-109 74 -3 -441 c-3 -439 -3
-442 -26 -485 -67 -126 -203 -181 -333 -137 -62 21 -109 63 -144 126 l-30 54
-3 1035 c-2 724 0 1070 8 1150 32 323 177 644 385 857 60 61 79 74 129 88 188
55 359 -85 343 -281 -5 -73 -27 -114 -117 -217 -70 -82 -151 -239 -182 -352
-32 -119 -32 -365 0 -483 47 -174 130 -314 261 -442 371 -362 964 -358 1331
10 116 115 208 276 251 435 31 114 32 356 2 466 -59 214 -190 396 -370 516
-149 99 -296 147 -494 163 -169 13 -240 53 -290 165 -27 60 -30 152 -7 206 31
71 105 137 178 160 37 11 144 10 240 -1z m-35 -1080 c112 -39 210 -138 249
-253 25 -74 21 -198 -8 -270 -69 -168 -227 -267 -403 -254 -296 22 -467 347
-317 603 29 49 107 125 155 150 94 48 224 58 324 24z"/>
</g>
</svg>
