<svg viewBox="0 0 18 16" version="1.1" xmlns="http://www.w3.org/2000/svg" xmlns:xlink="http://www.w3.org/1999/xlink">
    <g stroke="none" stroke-width="1" fill="none" fill-rule="evenodd">
        <g transform="translate(0.000000, -2.000000)" fill="#ED1C24">
            <g transform="translate(0.000000, 2.000000)">
                <g transform="translate(8.613281, 7.590234) scale(-1, 1) rotate(-180.000000) translate(-8.613281, -7.590234) translate(0.000000, -0.000000)">
                    <path d="M0,7.621875 C0,3.46640625 0.028125,0.06328125 0.06328125,0.06328125 C0.1125,0.06328125 6.3984375,15.0046875 6.3984375,15.13125 C6.3984375,15.159375 4.95703125,15.1804687 3.19921875,15.1804687 L0,15.1804687 L0,7.621875 Z"></path>
                    <path d="M10.828125,15.1382812 C10.828125,15.1171875 11.6859375,13.0570312 12.7335938,10.5539062 C13.78125,8.05078125 14.6460938,5.9765625 14.653125,5.934375 C14.6671875,5.89921875 14.7515625,5.68828125 14.8429688,5.47734375 C14.9414062,5.26640625 15.4898437,3.95859375 16.0664062,2.58046875 C16.6429688,1.1953125 17.1421875,0.06328125 17.1703125,0.06328125 C17.1984375,0.06328125 17.2265625,3.46640625 17.2265625,7.621875 L17.2265625,15.1804687 L14.0273438,15.1804687 C12.2695312,15.1804687 10.828125,15.159375 10.828125,15.1382812 Z"></path>
                    <path d="M8.13515625,8.55703125 C6.57421875,4.89375 5.8359375,3.14296875 5.8359375,3.08671875 C5.8359375,3.04453125 6.44765625,3.009375 7.31953125,3.00234375 L8.803125,2.98125 L9.38671875,1.5046875 L9.96328125,0.028125 L11.3132812,0.00703125 C12.2132812,-0.00703125 12.65625,0.0140625 12.65625,0.06328125 C12.65625,0.1546875 8.71875,9.49921875 8.6484375,9.5765625 C8.6203125,9.61171875 8.38828125,9.14765625 8.13515625,8.55703125 Z"></path>
                </g>
            </g>
        </g>
    </g>
</svg>