<svg viewBox="0 0 19 16" version="1.1" xmlns="http://www.w3.org/2000/svg" xmlns:xlink="http://www.w3.org/1999/xlink">
    <g stroke="none" stroke-width="1" fill="none" fill-rule="evenodd">
        <path d="M13.9940341,5.84940206 C13.9940341,6.50794227 14.0172419,7.16252371 13.9862981,7.82106392 C13.9553543,8.57029278 14.1797615,9.21303093 14.6440153,9.78084948 C14.698167,9.84788454 14.7484991,9.91491959 14.7948825,9.9859134 C14.9612862,10.2422433 14.9303101,10.4196619 14.7020511,10.6168412 C14.2145247,11.0348536 13.7309148,11.4567588 13.2434532,11.8747711 C12.9532743,12.1231835 12.771431,12.1192577 12.4774003,11.8747711 C12.08277,11.5474804 11.7732351,11.1452701 11.4985605,10.7154144 C11.4327888,10.6129155 11.3979608,10.6168412 11.3167172,10.6956866 C10.8291908,11.180701 10.3146371,11.6302515 9.66080409,11.8550433 C8.65098807,12.2059876 7.62570017,12.2612124 6.61203237,11.894466 C5.63704429,11.5395629 5.05283475,10.8061031 4.83616354,9.78480825 C4.5962845,8.64517938 4.72009199,7.56077526 5.40875298,6.59467216 C5.93107496,5.86517113 6.65456388,5.43534845 7.48638842,5.17116701 C8.34530494,4.9030268 9.23128109,4.80049485 10.1211414,4.70980619 C10.3726405,4.68219381 10.6202555,4.65854021 10.8717223,4.6348866 C10.9336099,4.63092784 10.9877939,4.6230433 10.9839097,4.54023918 C10.9762061,4.12225979 11.0187376,3.69636289 10.9220221,3.28626804 C10.7982147,2.76183093 10.4615877,2.45423505 9.94703407,2.33985979 C9.57949574,2.25705567 9.2158092,2.28070928 8.8598586,2.40296907 C8.31821295,2.59223093 7.98158603,2.97474639 7.8461908,3.54256495 C7.77268313,3.8540866 7.62951959,3.96450309 7.33160477,3.93293196 C6.6970954,3.86589691 6.06258603,3.79886186 5.43196082,3.7318268 C5.17272572,3.70421443 5.03733049,3.50310928 5.09148211,3.24677938 C5.42034072,1.61032577 6.47272061,0.691529897 7.98935434,0.269591753 C9.15392164,-0.0537402062 10.3339608,-0.0734680412 11.5023799,0.261707216 C12.44254,0.529847423 13.231833,1.00305155 13.672879,1.94154227 C13.9243782,2.47389691 13.982414,3.0496 13.9901499,3.62533608 C13.9978859,4.36278763 13.9901499,5.10805773 13.9940341,5.84940206 C13.9901499,5.84940206 13.9940341,5.84940206 13.9940341,5.84940206 Z M10.9839421,7.07971959 C10.9839421,6.88254021 10.9762385,6.68539381 10.9878262,6.48821443 C10.9955622,6.36595464 10.9529983,6.3225732 10.833075,6.33441649 C10.5390119,6.36199588 10.2411295,6.36595464 9.94706644,6.40537732 C9.43251278,6.47241237 8.92951448,6.6025567 8.51167632,6.9337732 C7.90422658,7.41882062 7.77656729,8.0812866 7.87713458,8.8265567 C7.99709029,9.70193814 8.7631431,10.1869856 9.5833799,9.89519175 C10.1404974,9.69801237 10.4809438,9.28006598 10.716971,8.75556289 C10.964586,8.22327423 10.9839421,7.65149691 10.9839421,7.07971959 Z" fill="#050606" fill-rule="nonzero"></path>
        <path d="M9.55240375,15.9797443 C6.6003799,15.9600165 3.95012266,15.187167 1.55521635,13.5585649 C1.06772232,13.2273155 0.603436116,12.8645278 0.162390119,12.4662763 C0.123710392,12.4307794 0.0849982964,12.3953155 0.0540545145,12.351901 C0.0114906303,12.2927505 -0.0194531516,12.2217897 0.030846678,12.1507959 C0.0811465077,12.0719175 0.166274276,12.064033 0.239781942,12.0995299 C0.410005111,12.182334 0.572524702,12.2730227 0.738863714,12.3597856 C2.26326576,13.1799753 3.86887905,13.7714804 5.55188416,14.1460784 C7.07625383,14.4852124 8.6160954,14.6429691 10.1791772,14.5995546 C12.4115963,14.5364784 14.5627394,14.0790433 16.6326388,13.2312082 C16.7332385,13.1878598 16.8377223,13.1444784 16.9421738,13.1207918 C17.0892215,13.0931794 17.2362368,13.1129072 17.3020085,13.2745897 C17.3638961,13.4244289 17.2826525,13.5427299 17.1743169,13.6373773 C17.096925,13.7043794 17.0079455,13.7596041 16.9189659,13.8187546 C15.5841755,14.7020536 14.1216934,15.2698722 12.5741158,15.6208495 C11.5526797,15.8575175 10.5158041,15.9718268 9.55240375,15.9797443 Z" fill="#F6A61F"></path>
        <path d="M17.0002095,12.4662763 C16.5552794,12.4623175 16.1142334,12.521468 15.673155,12.5687753 C15.5880273,12.5766598 15.4913118,12.6003134 15.452632,12.505699 C15.4062164,12.3992082 15.4951959,12.336132 15.5687036,12.284866 C16.1181175,11.9142268 16.7332709,11.7683134 17.3794003,11.7328165 C17.8243305,11.7052371 18.2653765,11.7249649 18.6987189,11.8590021 C18.8960341,11.9181526 18.9927496,12.0364536 18.9888978,12.2415175 C18.9656899,13.337732 18.6058552,14.2920247 17.8282147,15.068866 C17.8011227,15.0964784 17.7701789,15.120132 17.7392351,15.1437856 C17.6696116,15.1950845 17.5844838,15.2423588 17.5109438,15.1792825 C17.4413203,15.120132 17.48,15.0333691 17.5109438,14.9624082 C17.7392351,14.3827464 17.9713782,13.8070433 18.0835332,13.1879258 C18.0990375,13.1090474 18.1028893,13.0302021 18.1067734,12.9552495 C18.1106252,12.6989196 18.0216457,12.5885361 17.7740307,12.5254598 C17.5147956,12.454433 17.2555605,12.4662763 17.0002095,12.4662763 Z" fill="#F6A61F"></path>
    </g>
</svg>