<svg width="200" height="200" viewBox="0 0 200 200" fill="none" xmlns="http://www.w3.org/2000/svg">
<path fill-rule="evenodd" clip-rule="evenodd" d="M133.724 49.5182C118.071 32.523 102.419 35.2078 99.7353 35.6537C101.077 36.1006 102.419 65.6188 118.967 81.2717C130.147 91.5568 152.956 87.9792 152.956 87.9792C152.956 87.9792 148.931 66.0657 133.725 49.5182H133.724ZM152.51 107.212C147.589 107.212 127.464 109.002 114.048 125.548C100.183 142.991 100.63 156.856 97.4992 159.985C100.183 160.881 128.359 163.563 140.434 145.227C152.062 128.23 152.51 109.894 152.51 107.211V107.212ZM29.966 95.1344C33.0958 95.583 43.8305 109.448 63.0618 111.236C84.0816 113.474 91.2368 102.74 91.6854 102.74C91.6854 101.398 74.6902 83.0618 55.9066 83.0618C42.935 83.5078 29.966 95.1353 29.966 95.1353V95.1344ZM106.443 104.528C105.996 104.975 88.5547 128.232 47.4081 121.971C14.3122 116.604 2.23701 98.266 0 97.8192C2.68388 94.2407 27.7299 74.1156 56.7986 74.5624C85.423 75.4579 106.442 91.5577 106.442 91.5577H124.778C110.02 87.0854 92.1314 79.0356 84.0807 61.1457C76.9254 44.5991 78.2669 34.7591 75.1362 20.8955C75.1362 20.8955 108.231 18.2116 133.724 34.7591C156.981 49.9651 169.95 90.2162 170.397 91.5577H184.708L181.579 20L199.468 20.4469C196.338 39.2314 200.363 173.402 199.468 173.402C197.68 173.848 182.473 174.741 181.132 171.164C181.132 171.164 184.71 105.421 185.157 104.079H171.291C171.291 104.974 169.95 142.094 141.775 161.773C113.597 181.451 72.9001 175.637 72.9001 175.637C77.8209 168.034 72.9001 159.984 87.2105 138.069C103.759 113.024 125.673 104.079 125.227 104.079C123.886 104.528 106.891 104.528 106.443 104.528" fill="#9CBE30"/>
</svg>
