<svg xmlns="http://www.w3.org/2000/svg" xmlns:xlink="http://www.w3.org/1999/xlink" version="1.1" viewBox="0 0 13 16"><g fill="none" fill-rule="evenodd" stroke="none" stroke-width="1"><g fill="#000" fill-rule="nonzero"><path d="M7.16203219,1.39173727 C8.20820523,0.00675205255 9.66263581,0 9.66263581,0 C9.66263581,0 9.87897988,1.30212151 8.83965996,2.55647947 C7.72992555,3.8958555 6.46855936,3.67668966 6.46855936,3.67668966 C6.46855936,3.67668966 6.23170825,2.62331691 7.16203219,1.39173727 Z M6.60161972,4.58882102 C7.13982495,4.58882102 8.13870624,3.84572742 9.43888934,3.84572742 C11.6769296,3.84572742 12.5573722,5.44528079 12.5573722,5.44528079 C12.5573722,5.44528079 10.8353823,6.32958949 10.8353823,8.47532348 C10.8353823,10.8958949 12.9805131,11.7301018 12.9805131,11.7301018 C12.9805131,11.7301018 11.4809879,15.9693662 9.45555131,15.9693662 C8.52527968,15.9693662 7.80204024,15.3396913 6.82186117,15.3396913 C5.82297988,15.3396913 4.83173642,15.9928539 4.18613078,15.9928539 C2.3365996,15.9929064 0,11.9715205 0,8.73899507 C0,5.55864696 1.97777867,3.89028571 3.83285513,3.89028571 C5.03882093,3.89028571 5.97466398,4.58882102 6.60161972,4.58882102 Z"/></g></g></svg>