<svg enable-background="new 0 0 2500 2500" viewBox="0 0 2500 2500" xmlns="http://www.w3.org/2000/svg" xmlns:xlink="http://www.w3.org/1999/xlink"><linearGradient id="a" gradientTransform="matrix(2500 0 0 -2500 -724710 4475710)" gradientUnits="userSpaceOnUse" x1="290.384" x2="290.384" y1="1789.2841" y2="1790.2841"><stop offset="0" stop-color="#f9b932"/><stop offset="1" stop-color="#f9cb37"/></linearGradient><path d="m0 0h2500v2500h-2500z" fill="url(#a)"/><path d="m2278.8 1314-458 791c-19.5 33.7-55.7 56.2-97.7 56.2h-915.5c-42 0-78.1-22.5-97.7-56.6l-458.9-790.6c-20.2-34.9-20.2-77.9 0-112.8l458-791c19.5-33.2 56.2-56.2 97.7-56.2h917c42 0 78.1 22.9 97.7 56.6l457.5 790.5c20.2 34.9 20.2 78-.1 112.9zm-1153.8 447.2h280.8c62.3 0 112.8-50.5 112.8-112.8s-50.5-112.8-112.8-112.8h-280.8c-62.3 0-112.8 50.5-112.8 112.8s50.5 112.8 112.8 112.8zm392.1-1004.4h-503.4c-62.4 0-113 50.6-113 113s50.6 113 113 113h503.4c62.4 0 113-50.6 113-113s-50.6-113-113-113zm204.6 389.2h-913.1c-62.4 0-113 50.6-113 113s50.6 113 113 113h913.1c62.4 0 113-50.6 113-113s-50.6-113-113-113z" fill="#fff"/></svg>