<svg xmlns="http://www.w3.org/2000/svg" xmlns:xlink="http://www.w3.org/1999/xlink" aria-label="Discord" role="img" version="1.1" viewBox="0 0 14 16"><path fill="#7289DA" d="M12.341921,0 L1.63760117,0 C0.734923451,0 0,0.734923451 0,1.64558947 L0,12.4457689 C0,13.3564349 0.734923451,14.0913584 1.63760117,14.0913584 L10.6963315,14.0913584 L10.2729518,12.6135232 L11.2954539,13.5641307 L12.262038,14.4588201 L13.9795222,15.9765968 L13.9795222,1.64558947 C13.9795222,0.734923451 13.2445987,0 12.341921,0 Z M9.25843784,10.4327177 C9.25843784,10.4327177 8.97085909,10.0892209 8.73121016,9.78566553 C9.77767722,9.49009851 10.1770922,8.83505802 10.1770922,8.83505802 C9.84957193,9.05074206 9.53802829,9.20251975 9.25843784,9.30636762 C8.85902291,9.47412188 8.4755846,9.58595806 8.10013455,9.64986446 C7.33325794,9.79365384 6.63028767,9.75371233 6.03116527,9.64187615 C5.5758323,9.55400486 5.18440566,9.42619211 4.85688542,9.2983793 C4.67315456,9.22648464 4.4734471,9.13861335 4.27373964,9.02677717 C4.24977474,9.0108006 4.22580985,9.00281229 4.20184495,8.98683571 C4.18586836,8.9788474 4.17788006,8.97085909 4.16989176,8.96287077 C4.02610239,8.8829878 3.94621941,8.82706971 3.94621941,8.82706971 C3.94621941,8.82706971 4.32965773,9.46613357 5.34417163,9.76968896 C5.10452267,10.0732443 4.80895563,10.4327177 4.80895563,10.4327177 C3.04354168,10.3767996 2.37252462,9.21849633 2.37252462,9.21849633 C2.37252462,6.64626425 3.52283959,4.56131838 3.52283959,4.56131838 C4.67315456,3.69858215 5.76755145,3.72254705 5.76755145,3.72254705 L5.84743443,3.81840663 C4.40954071,4.23379815 3.74651195,4.86487372 3.74651195,4.86487372 C3.74651195,4.86487372 3.92225451,4.76901414 4.21782155,4.63321307 C5.07256948,4.25776304 5.75157483,4.15391516 6.03116527,4.12995027 C6.0790951,4.12196197 6.11903656,4.11397367 6.16696633,4.11397367 C6.65425256,4.05006728 7.20544513,4.03409069 7.78060265,4.09799707 C8.539491,4.18586836 9.35429739,4.40954071 10.1850805,4.86487372 C10.1850805,4.86487372 9.55400486,4.26575134 8.19599416,3.85035983 L8.30783033,3.72254705 C8.30783033,3.72254705 9.40222722,3.69858215 10.5525422,4.56131838 C10.5525422,4.56131838 11.7028571,6.64626425 11.7028571,9.21849633 C11.7028571,9.21849633 11.0238518,10.3767996 9.25843784,10.4327177 Z M5.5438791,6.70218233 C5.08854608,6.70218233 4.72907265,7.10159727 4.72907265,7.58888349 C4.72907265,8.07616967 5.09653437,8.4755846 5.5438791,8.4755846 C5.99921207,8.4755846 6.35868554,8.07616967 6.35868554,7.58888349 C6.3666738,7.10159727 5.99921207,6.70218233 5.5438791,6.70218233 Z M8.45960797,6.70218233 C8.004275,6.70218233 7.64480158,7.10159727 7.64480158,7.58888349 C7.64480158,8.07616967 8.01226326,8.4755846 8.45960797,8.4755846 C8.914941,8.4755846 9.27441442,8.07616967 9.27441442,7.58888349 C9.27441442,7.10159727 8.914941,6.70218233 8.45960797,6.70218233 Z"/></svg>