<svg
   width="72"
   height="72"
   viewBox="0 0 72 72"
   fill="none"
   version="1.1"
   id="svg297"
   xmlns="http://www.w3.org/2000/svg"
   xmlns:svg="http://www.w3.org/2000/svg">
  <defs
     id="defs301" />
  <g
     clip-path="url(#clip0)"
     id="g295">
    <path
       d="m 60.604499,13.476306 c -4.5253,-2.071887 -9.378,-3.5983624 -14.4518,-4.4726387 -0.0924,-0.016873 -0.1847,0.025295 -0.2323,0.1096303 -0.6241,1.1075994 -1.3154,2.5525514 -1.7995,3.6882784 -5.4572,-0.815225 -10.8864,-0.815225 -16.2317,0 -0.4842,-1.160972 -1.2006,-2.580679 -1.8275,-3.6882784 -0.0476,-0.081522 -0.1399,-0.1236897 -0.2323,-0.1096303 -5.071,0.8714823 -9.9237,2.3979577 -14.4518,4.4726387 -0.0392,0.01686 -0.0728,0.045 -0.0951,0.08152 -9.2045491,13.721513 -11.72606009,27.10576 -10.48909112,40.324068 0.0056,0.06466 0.041978,0.126524 0.092353,0.165839 C 6.95866,58.49784 12.841299,61.199455 18.614699,62.990155 c 0.0924,0.02814 0.1903,-0.0056 0.2491,-0.08152 1.3657,-1.860946 2.5831,-3.823172 3.6269,-5.886678 0.0616,-0.120836 0.0028,-0.264224 -0.1231,-0.31202 -1.931,-0.730908 -3.7697,-1.622067 -5.5384,-2.634063 -0.1399,-0.08152 -0.1511,-0.281187 -0.0224,-0.376779 0.3722,-0.278294 0.7445,-0.567863 1.0999,-0.860226 0.0643,-0.05338 0.1539,-0.06466 0.2295,-0.03093 11.6196,5.29357 24.1992,5.29357 35.6817,0 0.0756,-0.03652 0.1652,-0.02525 0.2323,0.02814 0.3555,0.292363 0.7277,0.584726 1.1027,0.86302 0.1287,0.09559 0.1203,0.295257 -0.0196,0.376779 -1.7687,1.031653 -3.6074,1.903155 -5.5412,2.631269 -0.1259,0.0478 -0.1819,0.193978 -0.1203,0.314814 1.0662,2.060612 2.2836,4.022838 3.6241,5.883884 0.056,0.07873 0.1567,0.112455 0.2491,0.08432 5.8014,-1.7907 11.684,-4.492315 17.7569,-8.942422 0.0532,-0.03932 0.0868,-0.09839 0.0924,-0.163045 1.4804,-15.281814 -2.4796,-28.5563 -10.4975,-40.324068 -0.0196,-0.03931 -0.0531,-0.06745 -0.0923,-0.08432 z m -36.3786,32.357021 c -3.4983,0 -6.3808,-3.20472 -6.3808,-7.140447 0,-3.935727 2.8266,-7.140447 6.3808,-7.140447 3.5821,0 6.4367,3.232858 6.3807,7.140447 0,3.935727 -2.8266,7.140447 -6.3807,7.140447 z m 23.5919,0 c -3.4982,0 -6.3807,-3.20472 -6.3807,-7.140447 0,-3.935727 2.8265,-7.140447 6.3807,-7.140447 3.5822,0 6.4367,3.232858 6.3808,7.140447 0,3.935727 -2.7986,7.140447 -6.3808,7.140447 z"
       fill="#5865f2"
       id="path293"
       style="stroke-width:0.998913" />
  </g>
</svg>
