<svg viewBox="0 0 16 16" version="1.1" xmlns="http://www.w3.org/2000/svg" xmlns:xlink="http://www.w3.org/1999/xlink">
    <path d="M15.6261374,8.14967939 C15.6261374,7.49416794 15.5729466,7.01581679 15.4578321,6.51975573 L7.97251908,6.51975573 L7.97251908,9.47841221 L12.366229,9.47841221 C12.2776794,10.2136794 11.7993282,11.3209771 10.7363053,12.0650382 L10.7214046,12.1640916 L13.0881221,13.9975573 L13.2520916,14.0139237 C14.7579847,12.623145 15.6261374,10.576855 15.6261374,8.14967939" fill="#4285F4"></path>
    <path d="M7.97251908,15.9450382 C10.1250687,15.9450382 11.9321527,15.2363359 13.2520916,14.0139237 L10.7363053,12.0650382 C10.063084,12.5345344 9.15951145,12.8622901 7.97251908,12.8622901 C5.86424427,12.8622901 4.07487023,11.4715725 3.43700763,9.54931298 L3.34351145,9.55725191 L0.882564885,11.4618015 L0.850381679,11.5512672 C2.16140458,14.1556031 4.85435115,15.9450382 7.97251908,15.9450382" fill="#34A853"></path>
    <path d="M3.43700763,9.54931298 C3.26870229,9.05325191 3.17129771,8.52170992 3.17129771,7.97251908 C3.17129771,7.42326718 3.26870229,6.89178626 3.42815267,6.39572519 L3.42369466,6.29007634 L0.931908397,4.3549313 L0.850381679,4.39370992 C0.310045802,5.47444275 0,6.68806107 0,7.97251908 C0,9.2569771 0.310045802,10.4705344 0.850381679,11.5512672 L3.43700763,9.54931298" fill="#FBBC05"></path>
    <path d="M7.97251908,3.08268702 C9.46955725,3.08268702 10.4793893,3.72934351 11.0552061,4.26974046 L13.3052214,2.07285496 C11.9233588,0.788396947 10.1250687,0 7.97251908,0 C4.85435115,0 2.16140458,1.78937405 0.850381679,4.39370992 L3.42815267,6.39572519 C4.07487023,4.47346565 5.86424427,3.08268702 7.97251908,3.08268702" fill="#EB4335"></path>
</svg>