<svg xmlns="http://www.w3.org/2000/svg" xmlns:xlink="http://www.w3.org/1999/xlink" id="Icon" x="0" y="0" enable-background="new 0 0 48 48" version="1.1" viewBox="0 0 48 48" xml:space="preserve"><linearGradient id="SVGID_1_" x1="24" x2="24" y1="0" y2="48.001" gradientUnits="userSpaceOnUse"><stop offset="0" style="stop-color:#fff"/><stop offset="1" style="stop-color:#eaeaea"/></linearGradient><path fill="url(#SVGID_1_)" fill-rule="evenodd" d="M48,42c0,3.313-2.687,6-6,6H6c-3.313,0-6-2.687-6-6V6	c0-3.313,2.687-6,6-6h36c3.313,0,6,2.687,6,6V42z" clip-rule="evenodd"/><path fill="#EAEAEA" fill-rule="evenodd" d="M28.296,29.584c0,0,1.567,5.225,6.165,4.18	c4.599-1.045,4.912-6.897,2.195-9.928C33.938,20.805,26.937,25.612,28.296,29.584z" clip-rule="evenodd"/><path fill="#CECECE" fill-rule="evenodd" d="M20.574,28.202c0,0-1.313,2.846,1.969,5.252	c3.283,2.407,7.331,5.033,5.581-4.595C26.372,19.23,20.684,27.326,20.574,28.202z" clip-rule="evenodd"/><path fill="#EAEAEA" fill-rule="evenodd" d="M35.924,11.086c0,0-2.299-1.567-6.165,2.404	c-3.867,3.971-5.748,6.166-5.539,7.733c0.209,1.568,3.554,11.496,8.778,7.629C38.224,24.985,41.463,15.058,35.924,11.086z" clip-rule="evenodd"/><path fill="#EAEAEA" fill-rule="evenodd" d="M24.429,19.865c0,0-12.958-9.51-15.466-4.18	s15.78,19.646,19.125,13.168C28.087,28.853,27.773,24.045,24.429,19.865z" clip-rule="evenodd"/><linearGradient id="SVGID_2_" x1="33.254" x2="33.254" y1="24.681" y2="35.701" gradientUnits="userSpaceOnUse"><stop offset=".472" style="stop-color:#f0e13f"/><stop offset="1" style="stop-color:#e2c033"/></linearGradient><path fill="url(#SVGID_2_)" fill-rule="evenodd" d="M28.296,31.383c0,0,1.567,5.225,6.165,4.18	c4.599-1.045,4.912-6.897,2.195-9.928C33.938,22.604,26.937,27.411,28.296,31.383z" clip-rule="evenodd"/><linearGradient id="SVGID_3_" x1="24.43" x2="24.43" y1="25.985" y2="37.5" gradientUnits="userSpaceOnUse"><stop offset=".472" style="stop-color:#4e9f00"/><stop offset="1" style="stop-color:#438200"/></linearGradient><path fill="url(#SVGID_3_)" fill-rule="evenodd" d="M20.574,30.001c0,0-1.313,2.846,1.969,5.252	c3.283,2.407,7.331,5.033,5.581-4.595C26.372,21.029,20.684,29.125,20.574,30.001z" clip-rule="evenodd"/><linearGradient id="SVGID_4_" x1="31.508" x2="31.508" y1="12.581" y2="31.539" gradientUnits="userSpaceOnUse"><stop offset="0" style="stop-color:#ff7d3f"/><stop offset="1" style="stop-color:#ea6632"/></linearGradient><path fill="url(#SVGID_4_)" fill-rule="evenodd" d="M35.924,12.885c0,0-2.299-1.567-6.165,2.404	c-3.867,3.971-5.748,6.166-5.539,7.733c0.209,1.568,3.554,11.496,8.778,7.629C38.224,26.784,41.463,16.856,35.924,12.885z" clip-rule="evenodd"/><path fill="none" fill-rule="evenodd" d="M28.296,31.383c0,0,1.567,5.225,6.165,4.18	c4.599-1.045,4.912-6.897,2.195-9.928C33.938,22.604,26.937,27.411,28.296,31.383z" clip-rule="evenodd"/><linearGradient id="SVGID_5_" x1="18.407" x2="18.407" y1="15.861" y2="32.303" gradientUnits="userSpaceOnUse"><stop offset="0" style="stop-color:#4bd0ef"/><stop offset="1" style="stop-color:#29aae1"/></linearGradient><path fill="url(#SVGID_5_)" fill-rule="evenodd" d="M24.429,21.664c0,0-12.958-9.51-15.466-4.18	s15.78,19.646,19.125,13.168C28.087,30.651,27.773,25.844,24.429,21.664z" clip-rule="evenodd"/></svg>