<svg width="1024" height="1024" viewBox="0 0 1024 1024" fill="none" xmlns="http://www.w3.org/2000/svg">
<g filter="url(#filter0_d_1_58)">
<path fill-rule="evenodd" clip-rule="evenodd" d="M928 355.119C928 345.242 928.004 335.364 927.943 325.486C927.894 317.165 927.798 308.846 927.572 300.529C927.083 282.402 926.014 264.119 922.79 246.194C919.52 228.01 914.181 211.086 905.767 194.564C897.496 178.325 886.691 163.465 873.799 150.583C860.91 137.7 846.046 126.902 829.801 118.636C813.263 110.22 796.321 104.882 778.117 101.614C760.19 98.395 741.902 97.3278 723.775 96.8381C715.452 96.6129 707.129 96.518 698.804 96.4665C688.921 96.4059 679.038 96.4109 669.155 96.4109L554.404 96H468.58L355.86 96.4109C345.958 96.4109 336.055 96.4059 326.153 96.4665C317.811 96.518 309.473 96.6129 301.134 96.8381C282.964 97.3278 264.635 98.396 246.666 101.619C228.437 104.886 211.47 110.222 194.909 118.632C178.63 126.899 163.734 137.698 150.818 150.583C137.904 163.464 127.079 178.321 118.792 194.557C110.355 211.087 105.006 228.021 101.728 246.215C98.501 264.133 97.4318 282.41 96.94 300.529C96.7159 308.847 96.6189 317.166 96.5685 325.486C96.5079 335.365 96 347.636 96 357.514L96.003 468.672L96 555.416L96.5129 668.936C96.5129 678.827 96.5089 688.718 96.5685 698.609C96.6189 706.941 96.7159 715.271 96.941 723.6C97.4318 741.751 98.503 760.06 101.733 778.009C105.01 796.217 110.358 813.165 118.788 829.708C127.076 845.971 137.903 860.85 150.818 873.751C163.733 886.652 178.625 897.464 194.901 905.742C211.472 914.169 228.448 919.513 246.687 922.786C264.648 926.01 282.971 927.079 301.134 927.569C309.473 927.794 317.812 927.89 326.154 927.94C336.056 928.001 345.958 927.997 355.86 927.997L469.599 928H555.636L669.155 927.996C679.038 927.996 688.921 928.001 698.804 927.94C707.129 927.89 715.452 927.794 723.775 927.569C741.909 927.078 760.203 926.008 778.138 922.782C796.331 919.509 813.264 914.167 829.794 905.745C846.042 897.468 860.909 886.654 873.799 873.751C886.689 860.852 897.493 845.975 905.764 829.715C914.183 813.164 919.522 796.208 922.794 777.988C926.015 760.046 927.083 741.744 927.573 723.6C927.798 715.27 927.894 706.94 927.943 698.609C928.005 688.718 928 678.827 928 668.936C928 668.936 927.994 557.42 927.994 555.416V468.581C927.994 467.101 928 355.119 928 355.119Z" fill="#F2F2F2"/>
</g>
<mask id="mask0_1_58" style="mask-type:luminance" maskUnits="userSpaceOnUse" x="95" y="96" width="833" height="832">
<path fill-rule="evenodd" clip-rule="evenodd" d="M927.656 355.119C927.656 345.242 927.66 335.364 927.6 325.486C927.55 317.165 927.454 308.846 927.228 300.529C926.739 282.402 925.67 264.119 922.446 246.194C919.177 228.01 913.837 211.086 905.424 194.564C897.152 178.325 886.347 163.465 873.455 150.583C860.567 137.7 845.703 126.902 829.458 118.636C812.919 110.22 795.977 104.882 777.773 101.614C759.846 98.395 741.558 97.3278 723.431 96.8381C715.108 96.6129 706.785 96.518 698.46 96.4665C688.577 96.4059 678.694 96.4109 668.811 96.4109L554.061 96H468.236L355.516 96.4109C345.614 96.4109 335.712 96.4059 325.81 96.4665C317.467 96.518 309.129 96.6129 300.79 96.8381C282.621 97.3278 264.292 98.396 246.322 101.619C228.094 104.886 211.127 110.222 194.566 118.632C178.286 126.899 163.39 137.698 150.474 150.583C137.56 163.464 126.735 178.321 118.448 194.557C110.011 211.087 104.662 228.021 101.384 246.215C98.1573 264.133 97.088 282.41 96.5963 300.529C96.3721 308.847 96.2752 317.166 96.2247 325.486C96.1641 335.365 95.6562 347.636 95.6562 357.514L95.6593 468.672L95.6562 555.416L96.1692 668.936C96.1692 678.827 96.1651 688.718 96.2247 698.609C96.2752 706.941 96.3721 715.271 96.5973 723.6C97.088 741.751 98.1593 760.06 101.389 778.009C104.666 796.217 110.014 813.165 118.444 829.708C126.732 845.971 137.559 860.85 150.474 873.751C163.389 886.652 178.281 897.464 194.557 905.742C211.129 914.169 228.104 919.513 246.343 922.786C264.305 926.01 282.628 927.079 300.79 927.569C309.129 927.794 317.468 927.89 325.811 927.94C335.713 928.001 345.614 927.997 355.516 927.997L469.255 928H555.292L668.811 927.996C678.694 927.996 688.577 928.001 698.46 927.94C706.785 927.89 715.108 927.794 723.431 927.569C741.565 927.078 759.859 926.008 777.794 922.782C795.987 919.509 812.921 914.167 829.451 905.745C845.699 897.468 860.566 886.654 873.455 873.751C886.345 860.852 897.149 845.975 905.421 829.715C913.839 813.164 919.179 796.208 922.45 777.988C925.671 760.046 926.739 741.744 927.229 723.6C927.454 715.27 927.55 706.94 927.6 698.609C927.661 688.718 927.656 678.827 927.656 668.936C927.656 668.936 927.65 557.42 927.65 555.416V468.581C927.65 467.101 927.656 355.119 927.656 355.119Z" fill="white"/>
</mask>
<g mask="url(#mask0_1_58)">
<rect width="832" height="832" transform="translate(96 95.7632)" fill="#989898"/>
<rect width="832" height="832" transform="translate(96 95.7632)" fill="url(#paint0_linear_1_58)"/>
<rect width="832" height="832" transform="translate(96 95.7632)" fill="url(#paint1_radial_1_58)"/>
<g filter="url(#filter1_f_1_58)">
<path d="M673.288 804.437C669.085 835.596 638.538 859.936 608.181 851.532C564.928 839.638 514.847 821.086 469.784 817.629C463.843 817.173 400.72 812.396 400.72 812.396C389.554 811.602 379.074 806.732 371.275 798.717L252.27 676.398C239.265 663.032 235.745 643.099 243.387 626.1C243.387 626.1 316.973 464.682 319.706 456.288C322.439 447.893 332.469 374.68 338.412 335.349C339.988 324.926 345.143 315.372 352.995 308.322L493.774 181.922C513.36 164.337 543.762 166.943 560.056 187.603L678.317 337.549C685.008 346.036 688.438 356.582 688.488 367.38C688.623 395.788 690.971 454.113 706.708 491.679C722.016 528.22 750.111 567.683 764.795 587.102C770.429 594.555 771.293 604.632 766.532 612.671C756.169 630.183 735.694 663.808 706.708 706.949C686.724 736.695 677.463 773.466 673.288 804.437Z" fill="#BF9FFF" fill-opacity="0.73"/>
</g>
<path d="M669.074 798.232C664.86 829.532 634.228 853.983 603.788 845.541C560.414 833.592 510.195 814.956 465.008 811.483C459.05 811.026 395.752 806.227 395.752 806.227C384.555 805.429 374.046 800.537 366.226 792.485L246.892 669.611C233.85 656.184 230.32 636.16 237.983 619.084C237.983 619.084 311.773 456.933 314.513 448.5C317.254 440.068 327.312 366.522 333.272 327.013C334.852 316.542 340.021 306.944 347.895 299.862L489.063 172.888C508.704 155.223 539.19 157.841 555.529 178.595L674.117 329.222C680.827 337.747 684.266 348.341 684.316 359.188C684.452 387.726 686.807 446.316 702.586 484.053C717.937 520.759 746.11 560.402 760.835 579.909C766.484 587.396 767.35 597.519 762.576 605.594C752.185 623.186 731.654 656.963 702.586 700.301C682.547 730.182 673.261 767.12 669.074 798.232Z" fill="#6C31E3"/>
<path d="M379.085 801.773C434.503 689.265 432.957 608.663 409.376 551.14C387.673 498.206 347.307 464.818 315.491 444.097C314.821 447.09 313.85 450.013 312.592 452.819L237.981 619.084C230.318 636.161 233.848 656.185 246.89 669.611L366.224 792.486C369.968 796.34 374.328 799.47 379.085 801.773Z" fill="url(#paint2_radial_1_58)"/>
<path d="M603.802 845.525C634.237 853.966 664.864 829.516 669.077 798.216C672.706 771.269 680.155 739.949 695.105 712.632C660.804 638.797 619.325 600.508 573.853 583.537C525.721 565.573 473.115 571.496 419.814 584.44C431.729 638.665 424.597 709.483 379.147 801.763C384.322 804.269 389.966 805.795 395.796 806.21C395.796 806.21 428.593 808.972 467.596 811.732C506.599 814.493 564.641 834.665 603.802 845.525Z" fill="url(#paint3_radial_1_58)"/>
<path d="M529.899 573.416C544.875 574.981 559.553 578.208 573.838 583.538C619.318 600.51 660.807 638.801 695.113 712.63C697.42 708.416 699.907 704.296 702.587 700.301C731.652 656.963 752.184 623.186 762.575 605.594C767.349 597.519 766.483 587.396 760.832 579.908C746.109 560.402 717.936 520.759 702.587 484.053C686.806 446.316 684.451 387.726 684.317 359.188C684.265 348.341 680.826 337.747 674.116 329.222L555.528 178.595C554.895 177.789 554.238 177.011 553.563 176.261C562.264 204.776 561.675 227.716 556.307 248.569C551.33 267.901 542.245 285.44 532.65 303.966L532.648 303.969C529.429 310.182 526.154 316.507 522.955 323.049C510.224 349.092 498.728 378.562 497.033 418.081C495.337 457.602 503.438 507.17 529.903 573.415L529.899 573.416Z" fill="url(#paint4_radial_1_58)"/>
<path d="M529.883 573.415C503.42 507.172 495.315 457.602 497.012 418.08C498.709 378.558 510.204 349.087 522.937 323.042C526.136 316.499 529.412 310.175 532.631 303.96C542.225 285.433 551.31 267.896 556.287 248.566C561.655 227.708 562.245 204.762 553.535 176.234C536.805 157.667 507.926 155.917 489.057 172.888L347.889 299.862C340.015 306.944 334.846 316.542 333.266 327.013L316.081 440.931C315.921 441.988 315.724 443.038 315.491 444.082C347.309 464.803 387.68 498.194 409.385 551.135C413.624 561.476 417.152 572.559 419.765 584.443C457.25 575.339 494.394 569.71 529.883 573.415Z" fill="url(#paint5_radial_1_58)"/>
<path fill-rule="evenodd" clip-rule="evenodd" d="M497.289 415.477C495.587 454.681 500.481 499.653 526.888 565.759L518.596 565.01C494.904 496.027 489.748 460.659 491.473 420.912C493.2 381.147 506.048 350.569 518.853 324.485C522.096 317.879 529.663 305.474 532.9 299.248C542.488 280.811 548.869 271.073 554.348 254.221C562.004 230.675 560.347 219.523 559.475 208.425C565.553 248.545 542.48 283.432 525.038 318.964C512.331 344.848 498.989 376.291 497.289 415.477Z" fill="url(#paint6_radial_1_58)"/>
<path fill-rule="evenodd" clip-rule="evenodd" d="M417.183 554.055C420.316 561.298 423.274 567.146 425.142 576.107L418.222 577.662C415.343 567.199 413.118 559.755 409.133 550.779C385.287 494.521 347.018 465.583 315.743 444.358C353.519 464.682 392.291 496.492 417.183 554.055Z" fill="url(#paint7_radial_1_58)"/>
<path fill-rule="evenodd" clip-rule="evenodd" d="M425.544 583.185C438.757 644.675 424.016 722.792 380.576 798.728C416.886 723.472 434.488 651.193 419.829 584.411L425.544 583.185Z" fill="url(#paint8_radial_1_58)"/>
<path fill-rule="evenodd" clip-rule="evenodd" d="M575.478 577.654C646.702 604.308 674.127 662.832 694.625 711.651C669.309 660.53 634.112 604.074 572.923 583.119C526.364 567.173 487.044 569.064 419.824 584.32L418.326 577.654C489.666 561.4 526.965 559.499 575.478 577.654Z" fill="url(#paint9_radial_1_58)"/>
<g style="mix-blend-mode:screen" filter="url(#filter2_i_1_58)">
<path fill-rule="evenodd" clip-rule="evenodd" d="M928 355.119C928 345.242 928.004 335.364 927.943 325.486C927.894 317.165 927.798 308.846 927.572 300.529C927.083 282.402 926.014 264.119 922.79 246.194C919.52 228.01 914.181 211.086 905.767 194.564C897.496 178.325 886.691 163.465 873.799 150.583C860.91 137.7 846.046 126.902 829.801 118.636C813.263 110.22 796.321 104.882 778.117 101.614C760.19 98.395 741.902 97.3278 723.775 96.8381C715.452 96.6129 707.129 96.518 698.804 96.4665C688.921 96.4059 679.038 96.4109 669.155 96.4109L554.404 96H468.58L355.86 96.4109C345.958 96.4109 336.055 96.4059 326.153 96.4665C317.811 96.518 309.473 96.6129 301.134 96.8381C282.964 97.3278 264.635 98.396 246.666 101.619C228.437 104.886 211.47 110.222 194.909 118.632C178.63 126.899 163.734 137.698 150.818 150.583C137.904 163.464 127.079 178.321 118.792 194.557C110.355 211.087 105.006 228.021 101.728 246.215C98.501 264.133 97.4318 282.41 96.94 300.529C96.7159 308.847 96.6189 317.166 96.5685 325.486C96.5079 335.365 96 347.636 96 357.514L96.003 468.672L96 555.416L96.5129 668.936C96.5129 678.827 96.5089 688.718 96.5685 698.609C96.6189 706.941 96.7159 715.271 96.941 723.6C97.4318 741.751 98.503 760.06 101.733 778.009C105.01 796.217 110.358 813.165 118.788 829.708C127.076 845.971 137.903 860.85 150.818 873.751C163.733 886.652 178.625 897.464 194.901 905.742C211.472 914.169 228.448 919.513 246.687 922.786C264.648 926.01 282.971 927.079 301.134 927.569C309.473 927.794 317.812 927.89 326.154 927.94C336.056 928.001 345.958 927.997 355.86 927.997L469.599 928H555.636L669.155 927.996C679.038 927.996 688.921 928.001 698.804 927.94C707.129 927.89 715.452 927.794 723.775 927.569C741.909 927.078 760.203 926.008 778.138 922.782C796.331 919.509 813.264 914.167 829.794 905.745C846.042 897.468 860.909 886.654 873.799 873.751C886.689 860.852 897.493 845.975 905.764 829.715C914.183 813.164 919.522 796.208 922.794 777.988C926.015 760.046 927.083 741.744 927.573 723.6C927.798 715.27 927.894 706.94 927.943 698.609C928.005 688.718 928 678.827 928 668.936C928 668.936 927.994 557.42 927.994 555.416V468.581C927.994 467.101 928 355.119 928 355.119Z" fill="black"/>
</g>
</g>
<defs>
<filter id="filter0_d_1_58" x="74" y="84" width="876" height="876" filterUnits="userSpaceOnUse" color-interpolation-filters="sRGB">
<feFlood flood-opacity="0" result="BackgroundImageFix"/>
<feColorMatrix in="SourceAlpha" type="matrix" values="0 0 0 0 0 0 0 0 0 0 0 0 0 0 0 0 0 0 127 0" result="hardAlpha"/>
<feOffset dy="10"/>
<feGaussianBlur stdDeviation="11"/>
<feColorMatrix type="matrix" values="0 0 0 0 0 0 0 0 0 0 0 0 0 0 0 0 0 0 0.3 0"/>
<feBlend mode="normal" in2="BackgroundImageFix" result="effect1_dropShadow_1_58"/>
<feBlend mode="normal" in="SourceGraphic" in2="effect1_dropShadow_1_58" result="shape"/>
</filter>
<filter id="filter1_f_1_58" x="221.393" y="152.252" width="566.229" height="718.957" filterUnits="userSpaceOnUse" color-interpolation-filters="sRGB">
<feFlood flood-opacity="0" result="BackgroundImageFix"/>
<feBlend mode="normal" in="SourceGraphic" in2="BackgroundImageFix" result="shape"/>
<feGaussianBlur stdDeviation="9" result="effect1_foregroundBlur_1_58"/>
</filter>
<filter id="filter2_i_1_58" x="96" y="96" width="832" height="834" filterUnits="userSpaceOnUse" color-interpolation-filters="sRGB">
<feFlood flood-opacity="0" result="BackgroundImageFix"/>
<feBlend mode="normal" in="SourceGraphic" in2="BackgroundImageFix" result="shape"/>
<feColorMatrix in="SourceAlpha" type="matrix" values="0 0 0 0 0 0 0 0 0 0 0 0 0 0 0 0 0 0 127 0" result="hardAlpha"/>
<feOffset dy="6"/>
<feGaussianBlur stdDeviation="1"/>
<feComposite in2="hardAlpha" operator="arithmetic" k2="-1" k3="1"/>
<feColorMatrix type="matrix" values="0 0 0 0 1 0 0 0 0 1 0 0 0 0 1 0 0 0 1 0"/>
<feBlend mode="normal" in2="shape" result="effect1_innerShadow_1_58"/>
</filter>
<linearGradient id="paint0_linear_1_58" x1="416" y1="28.7868" x2="416" y2="756.904" gradientUnits="userSpaceOnUse">
<stop stop-color="white" stop-opacity="0.88"/>
<stop offset="1" stop-color="white" stop-opacity="0"/>
</linearGradient>
<radialGradient id="paint1_radial_1_58" cx="0" cy="0" r="1" gradientUnits="userSpaceOnUse" gradientTransform="translate(416 43.9389) rotate(90) scale(661.643 1075.08)">
<stop stop-color="white" stop-opacity="0.95"/>
<stop offset="1" stop-color="white" stop-opacity="0.88"/>
</radialGradient>
<radialGradient id="paint2_radial_1_58" cx="0" cy="0" r="1" gradientUnits="userSpaceOnUse" gradientTransform="translate(373.124 790.667) rotate(-104.574) scale(312.164 208.025)">
<stop stop-color="white" stop-opacity="0.4"/>
<stop offset="1" stop-opacity="0.1"/>
</radialGradient>
<radialGradient id="paint3_radial_1_58" cx="0" cy="0" r="1" gradientUnits="userSpaceOnUse" gradientTransform="translate(606.19 847.209) rotate(-120.588) scale(253.721 291.323)">
<stop stop-color="white" stop-opacity="0.3"/>
<stop offset="1" stop-opacity="0.25"/>
</radialGradient>
<radialGradient id="paint4_radial_1_58" cx="0" cy="0" r="1" gradientUnits="userSpaceOnUse" gradientTransform="translate(639.182 662.311) rotate(-82.4846) scale(512.246 378.451)">
<stop stop-color="white" stop-opacity="0.55"/>
<stop offset="1" stop-color="white" stop-opacity="0.05"/>
</radialGradient>
<radialGradient id="paint5_radial_1_58" cx="0" cy="0" r="1" gradientUnits="userSpaceOnUse" gradientTransform="translate(391.83 572.378) rotate(-77.7214) scale(437.431 298.317)">
<stop stop-color="white" stop-opacity="0.83"/>
<stop offset="1" stop-color="white" stop-opacity="0.4"/>
</radialGradient>
<radialGradient id="paint6_radial_1_58" cx="0" cy="0" r="1" gradientUnits="userSpaceOnUse" gradientTransform="translate(572.182 332.681) rotate(102.236) scale(227.604 153.482)">
<stop stop-color="white" stop-opacity="0"/>
<stop offset="1" stop-color="white" stop-opacity="0.17"/>
</radialGradient>
<radialGradient id="paint7_radial_1_58" cx="0" cy="0" r="1" gradientUnits="userSpaceOnUse" gradientTransform="translate(305.528 455.957) rotate(45.3237) scale(167.71 357.205)">
<stop stop-color="white" stop-opacity="0.2"/>
<stop offset="1" stop-color="white" stop-opacity="0.44"/>
</radialGradient>
<radialGradient id="paint8_radial_1_58" cx="0" cy="0" r="1" gradientUnits="userSpaceOnUse" gradientTransform="translate(432.144 535.314) rotate(80.2016) scale(196.566 417.419)">
<stop stop-color="white" stop-opacity="0.12"/>
<stop offset="1" stop-color="white" stop-opacity="0.35"/>
</radialGradient>
<radialGradient id="paint9_radial_1_58" cx="0" cy="0" r="1" gradientUnits="userSpaceOnUse" gradientTransform="translate(692.78 695.809) rotate(-152.297) scale(299.519 942.568)">
<stop stop-color="white" stop-opacity="0.21"/>
<stop offset="0.46738" stop-color="white" stop-opacity="0.19"/>
<stop offset="1" stop-color="white" stop-opacity="0.29"/>
</radialGradient>
</defs>
</svg>
