<svg xmlns="http://www.w3.org/2000/svg" xmlns:xlink="http://www.w3.org/1999/xlink" version="1.1" viewBox="0 0 14 17"><path fill="#27346A" d="M11.5370753,1.24881015 C10.7968103,0.405067315 9.45867314,0.0433368961 7.74686573,0.0433368961 L2.77860016,0.0433368961 C2.42836729,0.0433368961 2.13075779,0.298051714 2.07592335,0.643420245 L0.00724987854,13.7634444 C-0.0338759514,14.0221392 0.16644664,14.2565122 0.428679082,14.2565122 L3.49587001,14.2565122 L4.26620545,9.37049823 L4.24232594,9.52350402 C4.29716038,9.17813547 4.59255881,8.9234207 4.94234947,8.9234207 L6.39988428,8.9234207 C9.26321489,8.9234207 11.5052359,7.76039991 12.1601538,4.39604167 C12.1796111,4.2965437 12.1964152,4.199699 12.2110083,4.10506537 C12.1283144,4.06128626 12.1283144,4.06128626 12.2110083,4.10506537 C12.4060243,2.86156178 12.2096816,2.01516567 11.5370753,1.24881015"/><path fill="#27346A" d="M5.43983935,3.65710337 C5.52164882,3.61818861 5.6127447,3.59652016 5.70826276,3.59652016 L9.60327689,3.59652016 C10.0645053,3.59652016 10.4947787,3.62659066 10.8879063,3.68982715 C11.0006707,3.7079579 11.1098973,3.72874191 11.2160285,3.75262143 C11.3221597,3.77605873 11.4251954,3.80259152 11.5251356,3.8317776 C11.5751056,3.84637064 11.6241913,3.86140588 11.6723925,3.87732556 C11.8656397,3.94188869 12.0456205,4.01706494 12.2110083,4.10506537 C12.4060243,2.86111957 12.2096816,2.01516567 11.5370753,1.24881015 C10.7963681,0.405067315 9.45867314,0.0433368961 7.74686573,0.0433368961 L2.77815795,0.0433368961 C2.42836729,0.0433368961 2.13075779,0.298051714 2.07592335,0.643420245 L0.00724987854,13.7630022 C-0.0338759514,14.0221392 0.16644664,14.25607 0.428236869,14.25607 L3.49587001,14.25607 L5.09402861,4.12142726 C5.12675239,3.91358704 5.26030078,3.74333495 5.43983935,3.65710337 Z"/><path fill="#2790C3" d="M12.1601538,4.39604167 C11.5052359,7.7599577 9.26321489,8.9234207 6.39988428,8.9234207 L4.94190726,8.9234207 C4.5921166,8.9234207 4.29671816,9.17813547 4.24232594,9.52350402 L3.28404988,15.5986293 C3.24823061,15.8250425 3.42334705,16.0302294 3.6524135,16.0302294 L6.23803424,16.0302294 C6.54404577,16.0302294 6.80450936,15.8073539 6.85226841,15.5053223 L6.87747453,15.3735428 L7.3647935,12.2851256 L7.39619064,12.1144313 C7.44394969,11.8123997 7.70441328,11.5895242 8.01042481,11.5895242 L8.39736138,11.5895242 C10.9020571,11.5895242 12.8632728,10.5719916 13.4363811,7.62906259 C13.6756184,6.39926761 13.5517988,5.37244848 12.9189916,4.6511987 C12.7270711,4.43274537 12.4887182,4.25232238 12.2110083,4.10506537 C12.195973,4.20014122 12.1796111,4.2965437 12.1601538,4.39604167 Z"/><path fill="#1F264F" d="M11.5255778,3.8317776 C11.4256376,3.80259152 11.3226019,3.77605873 11.2164707,3.75262143 C11.1103395,3.72918413 11.0006707,3.70840011 10.8883485,3.69026936 C10.4947787,3.62659066 10.0649475,3.59652016 9.60327689,3.59652016 L5.70870497,3.59652016 C5.6127447,3.59652016 5.52164882,3.61818861 5.44028156,3.65754559 C5.26030078,3.74377717 5.1271946,3.91358704 5.09447082,4.12186948 L4.26664766,9.37049823 L4.24276815,9.52350402 C4.29716038,9.17813547 4.59255881,8.9234207 4.94234947,8.9234207 L6.40032649,8.9234207 C9.26365711,8.9234207 11.5056781,7.76039991 12.160596,4.39604167 C12.1800533,4.2965437 12.1964152,4.20014122 12.2114505,4.10506537 C12.0456205,4.01750715 11.8660819,3.94188869 11.6728347,3.87776777 C11.6246335,3.8618481 11.5755478,3.84637064 11.5255778,3.8317776"/></svg>