<svg id="svg" version="1.1" xmlns="http://www.w3.org/2000/svg" xmlns:xlink="http://www.w3.org/1999/xlink" width="400" height="400" viewBox="0, 0, 400,400">
    <style>
        #fingerprint, #path0 {
          fill: #202020;
        }
        @media (prefers-color-scheme: dark) {
          #fingerprint, #path0 {
            fill: #e0e0e0;
          }
        }
    </style>
    <g id="fingerprint">
        <path id="path0" d="M187.891 20.011 C 131.836 25.847,83.715 53.880,55.275 97.266 C 37.565 124.282,11.719 192.052,11.719 211.472 C 11.719 225.650,30.021 232.831,39.619 222.419 C 42.442 219.357,42.894 218.156,46.350 204.537 C 67.158 122.562,99.287 79.868,154.679 60.587 C 252.151 26.660,348.811 97.277,355.130 207.031 C 358.442 264.546,316.092 312.515,281.935 289.939 C 262.371 277.009,260.364 268.278,268.173 230.078 C 278.188 181.086,269.538 157.875,234.766 140.439 C 187.102 116.538,145.840 139.642,125.446 201.651 C 111.027 245.491,120.530 307.408,148.211 349.980 C 158.385 365.628,175.258 383.634,182.248 386.303 C 192.689 390.291,203.906 382.741,203.906 371.727 C 203.906 365.707,202.166 362.890,191.977 352.408 C 148.718 307.906,138.394 230.846,169.356 183.566 C 183.580 161.847,201.219 158.072,224.570 171.751 C 240.336 180.986,242.752 190.717,236.690 220.550 C 227.308 266.717,230.308 286.007,249.904 305.510 C 290.080 345.495,346.624 330.774,374.597 273.047 C 394.788 231.380,391.246 171.927,365.520 120.703 C 332.517 54.988,257.948 12.717,187.891 20.011 M189.069 73.507 C 103.237 81.766,46.210 192.114,70.809 302.344 C 75.995 325.582,81.621 332.808,92.933 330.759 C 105.917 328.408,108.818 320.857,104.063 301.794 C 76.947 193.101,139.611 87.968,219.578 107.989 C 282.035 123.626,308.463 175.867,288.180 243.591 C 282.789 261.594,295.040 274.899,309.986 267.274 C 323.706 260.275,331.787 204.863,324.182 169.937 C 312.762 117.496,266.712 78.947,208.943 73.469 C 199.551 72.578,198.713 72.580,189.069 73.507 M192.188 194.907 C 184.713 197.320,179.062 204.427,178.355 212.304 C 176.132 237.052,210.739 243.562,217.676 219.701 C 222.073 204.576,207.163 190.073,192.188 194.907 " stroke="none" fill-rule="evenodd"></path>
    </g>
</svg>
