<?xml version="1.0" encoding="UTF-8" standalone="no"?>
<svg
   xmlns:dc="http://purl.org/dc/elements/1.1/"
   xmlns:cc="http://creativecommons.org/ns#"
   xmlns:rdf="http://www.w3.org/1999/02/22-rdf-syntax-ns#"
   xmlns:svg="http://www.w3.org/2000/svg"
   xmlns="http://www.w3.org/2000/svg"
   xmlns:sodipodi="http://sodipodi.sourceforge.net/DTD/sodipodi-0.dtd"
   xmlns:inkscape="http://www.inkscape.org/namespaces/inkscape"
   width="300"
   height="300"
   viewBox="0 0 300 300"
   version="1.1"
   id="svg4191"
   sodipodi:docname="safer-vpn-square.svg"
   inkscape:version="0.92.4 (5da689c313, 2019-01-14)">
  <metadata
     id="metadata4197">
    <rdf:RDF>
      <cc:Work
         rdf:about="">
        <dc:format>image/svg+xml</dc:format>
        <dc:type
           rdf:resource="http://purl.org/dc/dcmitype/StillImage" />
        <dc:title>Atom / Logo / Provider / Horizontal / SaferVPN</dc:title>
      </cc:Work>
    </rdf:RDF>
  </metadata>
  <defs
     id="defs4195" />
  <sodipodi:namedview
     pagecolor="#ffffff"
     bordercolor="#666666"
     borderopacity="1"
     objecttolerance="10"
     gridtolerance="10"
     guidetolerance="10"
     inkscape:pageopacity="0"
     inkscape:pageshadow="2"
     inkscape:window-width="1920"
     inkscape:window-height="1137"
     id="namedview4193"
     showgrid="false"
     inkscape:zoom="1.98125"
     inkscape:cx="80"
     inkscape:cy="106.7571"
     inkscape:window-x="-8"
     inkscape:window-y="-8"
     inkscape:window-maximized="1"
     inkscape:current-layer="svg4191" />
  <!-- Generator: Sketch 53.2 (72643) - https://sketchapp.com -->
  <title
     id="title4181">Atom / Logo / Provider / Horizontal / SaferVPN</title>
  <desc
     id="desc4183">Created with Sketch.</desc>
  <g
     id="g4222">
    <path
       inkscape:connector-curvature="0"
       id="Combined-Shape"
       d="m 41.923343,181.25622 -1.68383,3.74789 c -2.87101,-1.87133 -6.21457,-2.88852 -9.64131,-2.93313 -4.50833,0 -7.44146,1.68383 -7.44146,4.64412 0,8.98951 19.66284,4.29106 19.60852,16.91982 0,5.81194 -5.16014,9.55983 -12.62876,9.55983 -4.98475,-0.0751 -9.76099,-2.01272 -13.3892,-5.43172 l 1.79247,-3.58494 c 3.11589,3.09707 7.28752,4.90155 11.67821,5.05151 5.0515,0 8.14758,-2.0369 8.14758,-5.43173 0,-9.15245 -19.60852,-4.29106 -19.60852,-16.78402 0,-5.43173 4.83424,-8.9895 12.08559,-8.9895 3.92511,0.006 7.76777,1.12688 11.08071,3.23187 z m 11.70537,22.94903 -3.85653,8.82655 h -4.29106 l 15.67052,-34.8445 h 4.15527 l 15.61621,34.8445 h -4.3997 l -3.91084,-8.82655 z m 9.47835,-21.48246 -7.79452,17.68025 h 15.77916 z m 27.29441,-0.65181 v 12.24854 h 16.295177 v 3.77504 H 90.401473 v 14.93724 h -3.99231 v -34.8445 h 22.215747 v 3.88368 z m 28.109167,0 v 11.40662 h 17.76174 v 3.82936 h -17.76174 v 11.92264 h 20.4776 v 3.74789 H 114.54549 V 178.1873 h 23.70947 v 3.88368 z m 44.15991,19.88011 c -0.76043,0 -1.54803,0 -2.33564,0 h -9.3154 v 10.99924 h -3.88367 V 178.1873 h 13.28055 c 8.74507,0 13.76942,4.29106 13.76942,11.70536 0.33071,5.16936 -3.03433,9.85314 -8.03895,11.18935 l 8.14759,11.84116 h -4.3997 z m -2.33564,-3.74789 c 6.35513,0 9.94006,-2.71586 9.94006,-8.14759 0,-5.43172 -3.6121,-7.98463 -9.96722,-7.98463 h -9.28824 v 16.29517 z m 31.23241,14.8286 -13.74225,-34.8445 h 8.47347 l 9.5327,26.28954 9.58698,-26.28954 h 8.14758 l -13.85089,34.8445 z m 40.6836,-34.8445 c 8.88088,0 13.98671,4.37254 13.98671,12.11274 0,7.74021 -5.07866,12.79171 -13.98671,12.79171 h -6.92543 v 9.94005 h -7.87601 v -34.8445 z m -6.9526,18.33206 h 6.54524 c 4.39968,0 6.89827,-1.98258 6.89827,-6.00205 0,-4.01948 -2.49859,-5.73047 -6.89827,-5.73047 h -6.51807 z m 50.43356,16.51244 -16.91982,-22.32438 v 22.35154 h -7.55011 V 178.1873 h 7.2242 l 16.97413,22.40586 V 178.1873 h 7.46863 v 34.8445 z"
       style="fill:#44b6fa;fill-rule:nonzero;stroke:none;stroke-width:2.41269875" />
    <g
       transform="matrix(2.4126987,0,0,2.4126987,89.20257,80.339453)"
       style="opacity:0.95;fill:#44b6fa;fill-rule:nonzero;stroke:none;stroke-width:1"
       id="Group">
      <path
         inkscape:connector-curvature="0"
         id="Shape"
         d="M 25.550046,0.65080306 C 19.744095,0.62813994 14.443555,3.9491866 11.931389,9.1835543 V 9.0750871 H 6.3634077 v 2.6032119 h 4.6520363 c -0.216657,0.749737 -0.37382,1.515401 -0.470024,2.289863 H 0.90389314 v 2.603212 H 10.436953 c 0.07966,0.752544 0.21665,1.49791 0.409765,2.229603 H 3.953026 v 2.603212 h 7.737325 c 2.884552,6.954359 10.476158,10.694304 17.747847,8.743338 7.27169,-1.950965 11.971687,-8.9887 10.987771,-16.452991 C 39.442053,6.230244 33.078907,0.65081358 25.550046,0.65080306 Z M 25.429527,27.321677 C 18.981246,27.268463 13.793844,22.003854 13.835894,15.555491 13.877945,9.107127 19.133565,3.9106187 25.581992,3.9415062 c 6.448427,0.030887 11.654026,5.2775043 11.634301,11.7259748 -0.01271,3.108887 -1.263248,6.084664 -3.47511,8.269386 -2.211861,2.184722 -5.202848,3.398424 -8.311656,3.372758 z" />
      <path
         inkscape:connector-curvature="0"
         id="Path"
         d="m 25.634409,10.111551 c -1.30803,-0.03317 -2.469944,0.830322 -2.815428,2.092339 -0.345484,1.262017 0.214604,2.596922 1.357147,3.234605 v 5.423359 h 2.868355 v -5.423359 c 1.133804,-0.633691 1.69428,-1.954975 1.361907,-3.210604 -0.332372,-1.255629 -1.473146,-2.126582 -2.771981,-2.11634 z" />
    </g>
  </g>
</svg>
