<svg width="380" height="380" viewBox="0 0 380 380" fill="none" xmlns="http://www.w3.org/2000/svg">
<path d="M0 189.976C0 294.896 85.0545 379.953 189.975 379.953C294.895 379.953 379.949 294.896 379.949 189.976C379.949 85.0562 294.895 0 189.975 0C85.0545 0 0 85.0562 0 189.976Z" fill="url(#paint0_linear)"/>
<path d="M239.22 218.579C247.452 209.611 246.856 195.639 237.908 187.405C228.966 179.15 215.026 179.726 206.801 188.702C206.681 188.83 194.763 201.792 184.95 210.628C168.45 225.42 142.08 222.889 128.708 211.306C118.546 202.506 112.536 190.785 111.766 178.289C111.049 166.518 115.105 155.125 123.15 146.198C140.175 127.388 172.479 96.4191 172.811 96.1026C181.603 87.6871 181.901 73.7256 173.505 64.9131C165.093 56.1126 151.169 55.7756 142.382 64.2041C141.014 65.5186 108.6 96.5856 90.5334 116.569C74.4364 134.354 66.3864 157.244 67.8084 180.974C69.3119 205.438 80.7104 228.062 99.9284 244.687C115.555 258.216 135.912 264.968 156.295 264.968C177.346 264.968 198.427 257.774 214.331 243.47C225.747 233.205 238.674 219.15 239.22 218.579Z" fill="white"/>
<path d="M312.136 198.971C310.646 174.523 299.247 151.882 280.021 135.252C248.267 107.767 196.945 108.327 165.616 136.474C154.189 146.726 141.279 160.789 140.731 161.391C132.492 170.358 133.101 184.322 142.041 192.563C151 200.793 164.906 200.208 173.165 191.25C173.275 191.117 185.18 178.147 195.008 169.342C211.501 154.519 237.878 157.089 251.231 168.647C261.407 177.439 267.416 189.158 268.178 201.643C268.896 213.426 264.849 224.843 256.803 233.738C239.79 252.56 207.461 283.533 207.144 283.853C198.355 292.279 198.036 306.221 206.449 315.042C210.772 319.568 216.547 321.859 222.37 321.859C227.83 321.859 233.307 319.824 237.564 315.761C238.939 314.424 271.348 283.362 289.435 263.397C305.504 245.603 313.587 222.709 312.136 198.971Z" fill="white"/>
<defs>
<linearGradient id="paint0_linear" x1="189.872" y1="379.932" x2="189.872" y2="-0.0480603" gradientUnits="userSpaceOnUse">
<stop stop-color="#2255FF"/>
<stop offset="1" stop-color="#00AAFF"/>
</linearGradient>
</defs>
</svg>
