<?xml version="1.0" encoding="utf-8"?>
<!-- Generator: Adobe Illustrator 22.0.1, SVG Export Plug-In . SVG Version: 6.00 Build 0)  -->
<svg version="1.1"
	 id="svg3336" xmlns:cc="http://creativecommons.org/ns#" xmlns:dc="http://purl.org/dc/elements/1.1/" xmlns:rdf="http://www.w3.org/1999/02/22-rdf-syntax-ns#" xmlns:svg="http://www.w3.org/2000/svg"
	 xmlns="http://www.w3.org/2000/svg" xmlns:xlink="http://www.w3.org/1999/xlink" x="0px" y="0px" viewBox="0 0 298 84.1"
	 style="enable-background:new 0 0 298 84.1;" xml:space="preserve">
<style type="text/css">
	.st0{fill:#242424;}
	.st1{fill:url(#path3396_1_);}
	.st2{fill:#FFFFFF;}
</style>
<g id="g3344" transform="matrix(1.25,0,0,-1.25,-240.25,333.85454)">
	<g>
		<path id="path3356" class="st0" d="M271.9,225.6c0,1.9,2.4,4,2.7,3.8c1.7-1.5,5-3,7.8-3c2.5,0,3.7,0.7,3.7,2.1
			c0,1.6-2.1,1.6-4.7,2.2c-4.4,0.9-8.8,2.7-8.8,8.1c0,5.4,4,8.7,11.2,8.7c6.9,0,9.9-2.4,9.9-5c0-2.3-2.7-4.2-2.9-4
			c-1.7,1.6-4.5,2.8-7,2.8c-2.4,0-3.5-0.7-3.5-2c0-1.5,2.1-1.4,4.9-2c5.2-1.1,9.1-3.3,9.1-8.2c0-5.7-3.9-8.9-11.9-8.9
			C274.7,220.2,271.9,222.8,271.9,225.6"/>
		<path id="path3360" class="st0" d="M297,224.3v19c0,2.5,1.2,3.8,3.4,3.8h1.2c2.4,0,3.6-1.3,3.6-3.8v-6h8.4v6
			c0,2.5,1.2,3.8,3.4,3.8h1.2c2.3,0,3.5-1.3,3.5-3.8v-19c0-2.5-1.2-3.8-3.5-3.8H317c-2.2,0-3.4,1.3-3.4,3.8v6.2h-8.4v-6.2
			c0-2.5-1.2-3.8-3.6-3.8h-1.2C298.2,220.6,297,221.9,297,224.3"/>
		<path id="path3368" class="st0" d="M340.5,230.5c0-2.8-2.1-4.6-4.9-4.6c-2,0-3.3,1-3.3,2.6c0,2.7,3.6,3.8,6.3,3.8h1.8V230.5z
			 M335.9,247.6c-5.3,0-10.3-2.5-10.3-5.8c0-4.1,5.1-4,5.1-4c0.6,2.2,2.4,3.4,4.8,3.4c3.7,0,5-1.8,5-4.4h-1.8
			c-10.5,0-14.5-4.2-14.5-8.9c0-4.6,3.9-7.7,9-7.7c3.6,0,7,1.3,7.6,3.8c0.3-1.9,2.1-3.6,4.5-3.6c2.1,0,3.1,0.7,3.2,1v16
			C348.5,243.9,344,247.6,335.9,247.6"/>
		<path id="path3364" class="st0" d="M350.9,224v0.4c0,2.3,0.8,3.2,2.2,4.6l10,11.3h-8.3c-2.4,0-3.6,0.8-3.6,3.1v0.4
			c0,2.2,1.2,3.1,3.6,3.1h14.7c3,0,4.1-1.6,4.1-3.1v-0.4c0-2.3-0.9-3.2-2.2-4.6l-10.2-11.3h9c2.4,0,3.6-0.9,3.6-3.2V224
			c0-2.2-1.2-3.2-3.6-3.2H355C352.1,220.8,350.9,222.4,350.9,224"/>
		<path id="path3372" class="st0" d="M392,230.5c0-2.8-2.1-4.6-4.9-4.6c-2,0-3.3,1-3.3,2.6c0,2.7,3.6,3.8,6.3,3.8h1.8V230.5z
			 M387.3,247.6c-5.3,0-10.3-2.5-10.3-5.8c0-4.1,5.1-4,5.1-4c0.6,2.2,2.4,3.4,4.8,3.4c3.7,0,5-1.8,5-4.4h-1.8
			c-10.5,0-14.5-4.2-14.5-8.9c0-4.6,3.9-7.7,9-7.7c3.6,0,7,1.3,7.6,3.8c0.3-1.9,2.1-3.6,4.5-3.6c2.1,0,3.1,0.7,3.2,1v16
			C399.9,243.9,395.5,247.6,387.3,247.6"/>
		<path id="path3376" class="st0" d="M402.9,224.3v18.9c0,2.6,1.3,3.9,3.6,3.9h2.3c2.2,0,2.9-0.5,3.6-2.2l4.3-10.5l4.3,10.5
			c0.8,1.8,1.6,2.2,3.5,2.2h2.3c2.4,0,3.7-1.3,3.7-3.9v-18.9c0-2.5-0.9-3.8-3.2-3.8h-1.3c-2.2,0-3.2,1.3-3.2,3.8v11.2l-2.8-7.7
			c-0.4-1-0.4-2-3.5-2c-3.1,0-3,0.9-3.4,2l-2.7,7.3v-10.9c0-2.5-0.8-3.8-3.2-3.8h-1.3C403.9,220.6,402.9,221.9,402.9,224.3"/>
	</g>
	<g>
		
			<linearGradient id="path3396_1_" gradientUnits="userSpaceOnUse" x1="-460.5179" y1="-191.6212" x2="-459.5179" y2="-191.6212" gradientTransform="matrix(0 84.1045 84.1045 0 16342.0518 38931.4492)">
			<stop  offset="0" style="stop-color:#2255FF"/>
			<stop  offset="1" style="stop-color:#00AAFF"/>
		</linearGradient>
		<path id="path3396" class="st1" d="M192.2,233.4c0-18.6,15.1-33.6,33.6-33.6l0,0c18.6,0,33.6,15.1,33.6,33.6l0,0
			c0,18.6-15.1,33.6-33.6,33.6l0,0C207.3,267.1,192.2,252,192.2,233.4"/>
		<path id="path3408" class="st2" d="M243.8,220.9c-3.2-3.5-8.9-9-9.2-9.2c-0.8-0.7-1.7-1.1-2.7-1.1c-1,0-2,0.4-2.8,1.2
			c-1.5,1.6-1.4,4,0.1,5.5c0.1,0.1,5.8,5.5,8.8,8.8c1.4,1.6,2.1,3.6,2,5.7c-0.1,2.2-1.2,4.3-3,5.8c-2.4,2-7,2.5-9.9-0.1
			c-1.7-1.6-3.8-3.8-3.9-3.9c-1.5-1.6-3.9-1.7-5.5-0.2c-1.6,1.5-1.7,3.9-0.2,5.5c0.1,0.1,2.4,2.6,4.4,4.4c5.5,5,14.6,5.1,20.2,0.2
			c3.4-2.9,5.4-6.9,5.7-11.2C248.1,228.1,246.7,224,243.8,220.9 M220.3,220.6c-3.6,0-7.2,1.2-10,3.6c-3.4,2.9-5.4,6.9-5.7,11.2
			c-0.3,4.2,1.2,8.2,4,11.4c3.2,3.5,8.9,9,9.2,9.2c1.6,1.5,4,1.4,5.5-0.1c1.5-1.6,1.4-4-0.1-5.5c-0.1-0.1-5.8-5.5-8.8-8.8
			c-1.4-1.6-2.1-3.6-2-5.7c0.1-2.2,1.2-4.3,3-5.8c2.4-2,7-2.5,9.9,0.1c1.7,1.6,3.8,3.8,3.9,3.9c1.5,1.6,3.9,1.7,5.5,0.2
			c1.6-1.5,1.7-3.9,0.2-5.5c-0.1-0.1-2.4-2.6-4.4-4.4C227.7,221.9,224,220.6,220.3,220.6"/>
	</g>
</g>
</svg>
