<svg xmlns="http://www.w3.org/2000/svg" fill="none" viewBox="0 0 32 32"><path fill="#002333" d="M16 32C24.8366 32 32 24.8366 32 16C32 7.16344 24.8366 0 16 0C7.16344 0 0 7.16344 0 16C0 24.8366 7.16344 32 16 32Z"/><path fill="#fff" d="M20.9001 20.5L18.1001 16.4V20.5H15.2001V11.1H18.1001V15.1L21.0001 11.2H24.5001L20.9001 15.6L24.5001 20.5H20.9001Z"/><path fill="#fff" d="M11.5 14.9L9.70005 14.4C9.00005 14.3 8.80005 14 8.80005 13.6C8.80005 13.2 9.10005 12.9 9.50005 12.9C10.1 12.8 10.6 13.1 10.6 13.8H13.7C13.7 11.9 12.1 10.9 9.50005 10.9C7.10005 10.9 5.50005 12.1 5.50005 13.8C5.50005 15.2 6.40005 16.2 7.80005 16.5L9.80005 17C10.4 17.2 10.6 17.4 10.6 17.9C10.6 18.4 10.1 18.6 9.70005 18.7C9.00005 18.7 8.50005 18.4 8.50005 17.8H5.30005C5.30005 19.6 7.10005 20.8 9.70005 20.8C12.2 20.8 13.8 19.7 13.8 17.7C13.8 16.2 12.9 15.3 11.5 14.9Z"/><path fill="#00FF84" d="M26.8 21.0001C27.8494 21.0001 28.7 20.1494 28.7 19.1001C28.7 18.0507 27.8494 17.2001 26.8 17.2001C25.7507 17.2001 24.9 18.0507 24.9 19.1001C24.9 20.1494 25.7507 21.0001 26.8 21.0001Z"/></svg>