<svg id="svg3063" xmlns="http://www.w3.org/2000/svg" viewBox="0 0 1000 1455" width="1718" height="2500"><style>.st0{fill:#9e7fba}.st1{fill:#682a8f}</style><g id="layer1" transform="translate(-135.42 583.013)"><g id="g3328" transform="matrix(2.15014 0 0 2.15097 -155.75 -1003.633)"><g id="g3278"><path id="path3124" class="st0" d="M358.6 195.5h-2.9c-29.2.3-58.7 7.2-86 20.2 0 0 4.2-1.1 7.1-1.1.4 0 .8 0 1.1.1 2.8.5 5.5 1.9 7.7 3.6 3.2 2.4 4.3 7.1 7.8 9.2 2.8 1.7 6.3 2 9.6 2.1 7 .4 13.9-2.1 20.8-2.5 7.1-.4 14.2-.6 21.2.4 10.3 1.5 20.6 4.2 30.2 8.3 11.3 4.8 21.9 11.5 31.8 18.7 9.8 7.1 18.3 15.7 27 24.1 12.6 12.1 22.7 26.8 36.3 37.7 5.6 4.5 11.3 8.3 18.4 11.2 10.1 4.2 31.9 7.2 31.9 7.2l9.1 2.3c4.7.8 9 1.9 12.8 3.2l.2.1c3.5 1.2 6.5 2.7 9.1 4.4-7-23.3-19.3-45.5-32.7-65.3-33.5-49.7-100-83.4-160.5-83.9z"/><path id="path3122" class="st1" d="M236 236c-18 13.3-34.2 29.7-47.5 49.2-20.4 29.8-35.1 66.3-35.1 102.7v169c0 3.7 2.1 5.6 4.7 5.6h51.3c-6.8-3.3-11.6-7.7-14.2-13.1-19.7-39.6 43.3-109.5 141.3-163.2 4.2-3.1 8.2-6.3 8-7.6-.2-1.6-6.5 1-6.5 1-46.8 18.5-88 47.7-125.8 79.4 0 0-7.6-33.9-10.8-50.6-2-10.3-4.6-20.5-5.5-31-.8-9.6 0-29 0-29s.5-19.5 3.4-29c3.1-10 14.6-28.7 14.6-28.7s9.4-13.2 16.7-20.5c1.9-1.9 3.8-5.5 3.8-8.2 0-2.3-1.4-3.7-2-5.9-.7-2.9-1.4-6.4-1.3-9.3.1-2.3.5-4.2 1.5-6.2.9-1.6 2.3-3.4 3.4-4.6z"/><path id="path3094" class="st1" d="M558.4 387.5c-15.2 37.8-66.7 89.2-141.3 129.2-43.1 23.1-82.2 37.8-115.3 45.7h252c3.1 0 4.7-1.5 4.7-5.5-.1-50.5-.1-110.4-.1-169.4z"/><path id="path3096" class="st1" d="M499.8 383.7c-27.3 0-82.5 19.2-140.5 52.1-85.3 48.3-123.7 96.4-108.9 105.3 19.7 11.9 83 6.5 171.3-44.5 36.3-20.9 104.6-71.6 95.7-105-1.5-5.3-7.7-7.8-17.6-7.9zm-131.5 59.4s19.2 36.7-10.5 59.2c-40.6 30.8-70.5-2-70.5-2 19.9-21.2 48.1-41.6 81-57.2z"/></g><g id="g3261"><g id="text3143" transform="matrix(5.6956 0 0 5.7604 -1277.173 570.001)"><path id="path3167" d="M264.2 47.7c.8 0 1.4-.2 1.8-.5.4-.3.6-.8.6-1.4v-.1c0-.6-.2-1-.6-1.4-.4-.3-1-.5-1.9-.5h-4.7v3.9h4.8zm-1.6-7.9c.8 0 1.4-.1 1.8-.4.4-.3.6-.8.6-1.4v-.1c0-.6-.2-1-.6-1.3-.4-.3-1-.5-1.7-.5h-3.3v3.7h3.2zm-8.1-8.4h9.3c1.1 0 2.1.2 2.9.5.8.3 1.5.6 2 1.1.4.4.8.8 1.1 1.5.2.6.3 1.4.3 2.1v.2c0 1.2-.5 2.2-1 2.9-.5.8-1.3.8-2.1 1.2 1.5.2 3.2 1.5 3.9 2.3.7.8 1 1.9 1 3.3v.1c0 1.8-.6 3.2-1.8 4.3-1.2 1-4 1.5-6.2 1.5h-9.4v-21z"/><path id="path3169" d="M273.9 31.4h15.9v4.4H279v3.9h9.2v4.1H279V48h11v4.5h-16.1V31.4z"/><path id="path3171" d="M292.2 31.4h5.5V48h9.6v4.4h-15v-21z"/><path id="path3187" d="M309.4 31.4h5.5V48h9.6v4.4h-15v-21z"/></g><g id="g3255"><path id="path3157" d="M171.6 634.6h-36.2v-25.2h104.2v25.2h-37.2v96.1h-30.8v-96.1z"/><path id="path3159" d="M294.8 688.5L280 647l-15.8 41.5h30.6zm-26-79.6h25l49.4 121.8h-32.5l-7-17.9h-47.8l-7.4 17.9h-30l50.3-121.8z"/><path id="path3163" d="M513.1 607.3c-8.4.3-17.7 2.5-24.8 5.6-7.6 3.3-13.8 7.4-19.3 13.1-5.6 5.7-8.5 12-11.6 19.7-3.1 7.7-4 15.8-4 24.4v.4c0 8.6.8 16.7 4 24.3 3.1 7.6 7.4 14.2 12.9 19.9s12 10.1 19.6 13.4c7.6 3.3 15.8 4.9 24.6 4.9 8.9 0 17.1-1.6 24.6-4.9 7.6-3.3 14.1-7.8 19.7-13.5s9.9-12.4 13.1-20c3.1-7.7 3.8-15.8 3.8-24.5v-.3c0-8.6-.7-16.7-3.8-24.3-3.1-7.6-7.4-14.2-12.9-19.9-5.5-5.6-12-10.1-19.5-13.4-7.6-3.3-15.8-4.9-24.7-4.9h-1.7zm1.3 26.6c4.7 0 9 1 12.9 3 3.9 2 7.2 4.7 10 8s5 7.2 6.5 11.5c1.5 4.4 2.3 9 2.3 13.8v.4c0 4.9-.8 9.5-2.3 13.8-1.5 4.4-3.6 8.2-6.3 11.5-2.7 3.3-6 5.9-9.9 7.8-3.9 1.9-8.1 2.9-12.8 2.9-4.7 0-9-1-12.9-3-3.9-2-7.2-4.7-9.9-8-2.8-3.3-4.9-7.2-6.4-11.5-1.5-4.4-2.3-9-2.3-13.9v-.4c0-4.9.7-9.5 2.2-13.8 1.5-4.4 3.6-8.2 6.3-11.5 2.8-3.3 6.1-5.9 9.9-7.8 3.8-1.9 8-2.8 12.7-2.8z"/><path id="path3189" d="M338.4 670.4c0-15.5 4-32.7 14.6-44 11.6-12.3 30.1-19 47-19 33.1 0 48.3 22.9 48.3 22.9l-23.5 17s-6.3-7.2-10.4-9.4c-4.2-2.2-9.1-4-13.8-3.5-8.8.8-18.2 4.7-24 11.3-5.5 6.2-8.1 15.4-7.8 23.7.5 11.1 4.7 23.4 13.1 30.8 4.6 4.1 12.6 5.1 17.9 5.1 7.9 0 12.1-1.5 17.5-4.2 3.6-1.8 9.4-7.8 9.4-7.8l24.6 17.7s-18.4 21.9-50.6 21.9c-14.1 0-29.5-3.4-39.4-11.7-14.6-12.5-22.9-22.5-22.9-50.8z"/></g><g id="g3217" transform="matrix(.625 0 0 .625 405.364 842.345)"><g id="text3219"><path id="path3231" d="M281.4 8.3h-7V6.2h16.5v2.2h-7v18.8h-2.4V8.3z"/><path id="path3233" d="M292.1 6.2h2.4l7.7 11.5 7.7-11.5h2.4v21h-2.4v-17l-7.7 11.2h-.1l-7.7-11.2v17h-2.3v-21z"/></g></g></g></g></g></svg>