<svg xmlns="http://www.w3.org/2000/svg" width="2500" height="2500" viewBox="0 0 192.756 192.756"><path fill-rule="evenodd" clip-rule="evenodd" fill="#fff" d="M0 0h192.756v192.756H0V0z"/><path d="M74.25 5.917c8.099-2.697 15.918 7.158 15.918 7.158l4.587-.765h5.405c17.209 3.318 30.639 19.46 39.277 30.428 4.607 5.889 15.891 10.744 23.088 12.281 3.822.836 2.549.664 6.406 3.848 4.357 3.575 1.027 9.963-2.832 15.088-1.918 2.554-8.701 10.228-10.771 12.278-7.172 7.157-23.32 15.834-33.602 21.471-7.703 4.217-40.921 18.936-52.105 18.936-7.699 0-27.958.771-19.5-16.146l3.088-6.125c1.795-4.334 3.842-10.843 3.842-13.796 1.812-9.459-9.482-35.552 0-52.937 2.648-4.869 8.042-12.001 7.956-12.53-1.018-5.889 0-9.476 1.799-13.063 3.371-3.241 2.815-4.589 7.444-6.126z" fill-rule="evenodd" clip-rule="evenodd" fill="#ca0088" stroke="#ca0088" stroke-width="1.075" stroke-miterlimit="2.613"/><path d="M106.412 122.521h55.064V83.334c-18.667 20.848-50.402 37.918-55.064 39.187zM80.883 4.451c7.703 1.416 10.195 6.851 9.935 6.717 17.454-2.088 24.614 2.768 33.217 10.349 10.316 9.103 17.277 18.776 20.102 21.54 5.814 5.729 12.432 6.725 15.869 6.851-4.348-12.446-10.572-27.567-31.748-39.294C109.064-.022 84.856 2.796 80.883 4.451z" fill-rule="evenodd" clip-rule="evenodd" fill="#3b4095" stroke="#3b4095" stroke-width=".929" stroke-miterlimit="2.613"/><path d="M89.764 16.056c12.578.433 16.134 6.439 16.134 6.439 8.479 7.981 15.094 25.034 21.303 29.65 2.381-.688 4.352-1.39 11.107-1.521-4.75-.437-13.084-13.865-13.123-13.958-2.371-4.368-8.424-13.748-17.432-18.499-9.411-4.988-17.989-2.111-17.989-2.111z" fill-rule="evenodd" clip-rule="evenodd" fill="#fff" stroke="#fff" stroke-width=".929" stroke-miterlimit="2.613"/><path d="M66.739 8.937c-5.71 5.46-5.15 13.282-4.501 16.932-10.577 9.236-14.02 24.757-13.08 39.971-.16 7.703 2.775 19.015 2.235 25.047.129 3.365-.255 8.272-5.427 15.942-4.705 7.057-5.562 11.342-5.792 15.098H28.373V61.384c2.248-33.571 28.583-48.545 38.366-52.447z" fill-rule="evenodd" clip-rule="evenodd" fill="#3b4095" stroke="#3b4095" stroke-width=".929" stroke-miterlimit="2.613"/><path d="M70.177 8.802c-5.962 5.595-1.98 14.118-1.98 14.118.651-1.109 10.05-6.864 16.005-7.687-22.774 10.001-26.331 22.229-23 43.634 1.445 9.212 3.28 15.101 4.22 24.627-5.571 4.604-9.117 11.879-9.117 11.879 1.31-8.389-2.042-19.767-3.318-30.907-1.741-14.966 1.323-28.395 11.775-38.9 0 0-3.586-11.034 5.415-16.764zM102.451 73.967c46.836-22.241 53.459-7.687 53.459-7.687 7.557 16.218-34.918 39.59-37.824 40.7-1.324 1.25-45.656 23.219-55.584 7.133-.386-1.404-4.631-12.863 26.325-36.508 15.365-11.766 35.332-19.994 51.863-24.48-8.049 1.126-22.217 2.94-52 19.045-26.715 15.356-45.486 40.254-40.326 50.352 14.418 13.408 51.576-3.227 68.113-11.342 25.148-11.482 60.217-37.494 54.268-52.032-13.106-17.347-68.403 13.849-68.294 14.819zM21.365 135.93h35.987l-2.8 5.736h-8.44v16.928H32.753v-16.928h-8.358l-3.03-5.736z" fill-rule="evenodd" clip-rule="evenodd" fill="#3b4095" stroke="#3b4095" stroke-width=".929" stroke-miterlimit="2.613"/><path d="M62.647 135.93h17.334l12.164 22.664H78.523l-1.725-4.477h-11.64l-1.963 4.477H49.957l12.69-22.664zm4.764 12.584h6.995l-3.404-6.848-3.591 6.848z" fill-rule="evenodd" clip-rule="evenodd" fill="#3b4095"/><path d="M62.647 135.93h17.334l12.164 22.664H78.523l-1.725-4.477h-11.64l-1.963 4.477H49.957l12.69-22.664zm4.764 12.584h6.995l-3.404-6.848-3.591 6.848z" fill="none" stroke="#3b4095" stroke-width=".929" stroke-miterlimit="2.613"/><path fill-rule="evenodd" clip-rule="evenodd" fill="#3b4095" stroke="#3b4095" stroke-width=".929" stroke-miterlimit="2.613" d="M69.781 167.541h31.865l-2.607 5.309H83.024v3.091h14.943v5.176H83.024v3.326h17.835v5.479H69.781v-22.381zM103.66 167.541h14.156v16.902h16.918l-2.785 5.479h-24.07c-3.572 0-4.219-3.084-4.219-3.084v-19.297zM136.717 167.541h14.178v16.902h16.912l-2.76 5.479h-24.08c-3.568 0-4.25-3.084-4.25-3.084v-19.297zM121.49 141.666s-9.637-.697-12.145.547c0 .168-4.643.293-4.752 5.041.395 6.863 9.236 5.871 9.236 5.871 1.85.43 9.27-.814 9.27-.814v5.713s-5.953 1.125-11.629 1.125c-1.611-.555-20.521.857-20.904-10.635-1.981-13.146 21.287-12.584 21.287-12.584 8.07 0 12.031.975 12.031.975l-2.394 4.761z"/><path d="M139.088 147.875c0-3.428 1.467-7.039 5.711-6.906 3.307 0 5.553 3.084 5.287 6.865.266 3.904-1.584 6.283-5.287 6.283-3.971 0-5.711-2.789-5.711-6.242zm-14.024-.336c0-6.428 8.373-11.609 19.35-11.609 10.939 0 19.848 4.057 19.848 11.609.102 7.838-8.908 11.609-19.848 11.609-10.976 0-19.459-4.048-19.35-11.609z" fill-rule="evenodd" clip-rule="evenodd" fill="#3b4095"/><path d="M139.088 147.875c0-3.428 1.467-7.039 5.711-6.906 3.307 0 5.553 3.084 5.287 6.865.266 3.904-1.584 6.283-5.287 6.283-3.971 0-5.711-2.789-5.711-6.242m-14.024-.336c0-6.428 8.373-11.609 19.35-11.609 10.939 0 19.848 4.057 19.848 11.609.102 7.838-8.908 11.609-19.848 11.609-10.976 0-19.459-4.048-19.35-11.609" fill="none" stroke="#3b4095" stroke-width=".929" stroke-miterlimit="2.613"/><path d="M32.753 167.541h26.575s7.41.562 6.757 5.309c.653 4.486-4.11 5.311-4.11 5.311s4.254.555 4.764 5.201c.672 5.719-6.344 6.561-6.344 6.561H32.753v-22.382zm12.815 4.326v4.074h6.625s2.36 0 1.85-2.242c0-1.545-1.709-1.832-1.709-1.832h-6.766v13.014h6.625s2.916-.117 2.36-2.379c0-1.385-2.219-1.947-2.219-1.947h-6.766v-8.688z" fill-rule="evenodd" clip-rule="evenodd" fill="#3b4095"/><path d="M32.753 167.541h26.575m.001 0s7.41.562 6.757 5.309c.653 4.486-4.111 5.311-4.111 5.311s4.254.555 4.764 5.201c.672 5.719-6.344 6.561-6.344 6.561m0-.001H32.753v-22.381m12.815 4.326v4.074h6.625m-.001 0s2.36 0 1.85-2.242c0-1.545-1.709-1.832-1.709-1.832m0 0h-6.766m.001 8.688v4.326h6.625m-.001 0s2.916-.117 2.36-2.379c0-1.385-2.219-1.947-2.219-1.947m0 0h-6.766" fill="none" stroke="#3b4095" stroke-width=".929" stroke-miterlimit="2.613"/><path d="M68.338 111.105c-3.084-6.947 12.96-21.723 35.766-32.971 22.857-11.262 43.834-14.752 46.918-7.78 3.061 6.956-12.961 21.712-35.793 32.972-22.838 11.248-43.817 14.742-46.891 7.779z" fill-rule="evenodd" clip-rule="evenodd" fill="#3b4095" stroke="#3b4095" stroke-width="1.067" stroke-miterlimit="2.613"/><path d="M74.271 100.965c-.112-.26 2.526-2.258 2.663-2.258 1.057 1.998 6.209 6.164 18.369 3.375-8.982.572-14.519-7.411-9.781-9.515 1.195-.698 17.999-10.758 20.376-8.8 3.834 10.644-3.363 19.702-10.979 22.229-6.333 2.102-15.214 2.529-20.648-5.031z" fill-rule="evenodd" clip-rule="evenodd" fill="#fbe03c" stroke="#fbe03c" stroke-width="1.067" stroke-miterlimit="2.613"/></svg>