<svg xmlns="http://www.w3.org/2000/svg" width="300" height="300" style="background:#f66801" viewBox="0 0 300 300">
  <g fill="#FFF" fill-rule="evenodd" transform="translate(39 66)">
    <path fill-rule="nonzero" d="M58,19.677269 C58,29.4385915 49.1466416,37.3526016 38.2238691,37.3526016 C27.3030415,37.3526016 18.4457932,29.4385915 18.4457932,19.677269 C18.4457932,9.91401011 27.3030415,2 38.2238691,2 C49.1466416,2 58,9.9159465 58,19.677269 M9.44072969,63.9817836 L21.5771436,45.1872199 C21.5771436,45.1872199 38.6556454,58.3856277 43.8272358,62.8644888 C48.9949365,67.3394772 58.2119983,74.9475383 57.9863854,87.2532721 C57.7607726,99.559006 54.164582,110.30014 51.24134,117.685517 C48.3219879,125.06702 29.2168606,164 29.2168606,164 L0,145.877362 C0,145.877362 28.1004661,119.999498 38.8812582,104.258615 C42.2537809,99.3363216 46.2953623,86.3586617 34.8357869,79.645211 C23.3723215,72.9336967 9.44072969,63.9817836 9.44072969,63.9817836"/>
    <path d="M47,53.0292902 C47,53.0292902 62.9739739,42.7828482 78.7240317,0 C83.221823,1.55991185 105.946378,7.57588835 105.946378,7.57588835 L98.5201546,21.165825 C98.5201546,21.165825 132.496976,10.9174548 161.744302,10.9174548 C161.744302,10.9174548 177.720223,10.2502984 190.097911,14.2609494 C202.471705,18.2716004 215.073309,26.5165733 218.22371,39.8847672 C221.374111,53.2529612 224.746481,97.817464 218.447626,138.143788 C218.447626,138.143788 217.096341,147.505188 208.322728,155.748232 C199.549114,163.991277 188.97249,168 170.297894,168 C151.623298,168 141.722316,164.436691 141.722316,164.436691 L145.548359,148.835644 C145.548359,148.835644 157.024542,153.069966 166.022071,153.069966 C175.023495,153.069966 182.673635,149.284914 186.721647,144.605179 C186.721647,144.605179 190.323774,139.256358 190.54769,134.800294 C190.771606,130.342301 190.997469,44.7843173 190.097911,41.8862363 C189.198353,38.9900836 188.072931,28.0707006 174.12199,25.3982187 C160.172996,22.7257368 149.148539,24.5073914 145.772275,25.176476 C142.399905,25.8436324 121.248604,30.9687816 110.673927,35.2011753 C114.723886,36.5393444 122.599888,38.5446699 122.599888,38.5446699 C122.599888,38.5446699 118.999708,45.8968873 112.47499,53.027362 C121.476414,52.8056193 181.320403,53.027362 181.320403,53.027362 L181.320403,66.3974842 L142.849684,66.3974842 L142.849684,84.2217427 L180.874518,84.2217427 L180.874518,97.5918648 L142.849684,97.5918648 L142.849684,125.888165 C142.849684,125.888165 149.148539,125.888165 158.371932,118.75769 C157.698237,113.856212 157.922153,113.185199 155.673257,106.056652 C161.52428,104.72234 173.224379,100.711689 173.224379,100.711689 L187.849015,136.585805 L166.022071,145.050592 L161.972112,130.5679 C161.972112,130.5679 155.449341,137.920118 139.47342,142.601781 C117.229798,149.117161 103.025734,148.837572 99.199691,148.617758 C99.199691,148.617758 88.4010978,149.059315 81.8763798,146.16509 C75.3477676,143.268938 65.9004588,136.585805 65.9004588,117.423377 C65.9004588,110.963915 67.4756593,105.615095 67.4756593,105.615095 L94.9258158,105.836838 C94.9258158,105.836838 93.5784255,115.41998 93.5784255,117.868791 C93.5784255,120.31953 91.5495517,130.793499 111.349569,130.5679 C111.349569,116.53255 111.125653,97.3681939 111.125653,97.3681939 L71.9773448,97.1464512 L71.9773448,83.7763291 L110.901737,83.7763291 L110.901737,66.8428978 L101.000755,66.8428978 C101.000755,66.8428978 90.2021614,76.8714535 84.1252754,82.88743 L72.8769031,73.0825452 C72.8769031,73.0825452 85.8581907,59.7143513 94.6999527,40.3301809 C89.5265192,42.3355064 80.5250953,46.3461574 80.5250953,46.3461574 C80.5250953,46.3461574 74.2242933,54.3674594 66.350238,62.6105041 C60.7270253,59.4906804 47,53.0292902 47,53.0292902 Z"/>
  </g>
</svg>
