<svg xmlns="http://www.w3.org/2000/svg" xmlns:xlink="http://www.w3.org/1999/xlink" aria-label="Telegram" role="img" version="1.1" viewBox="0 0 16 16"><defs><linearGradient id="linearGradient-1" x1="66.67%" x2="41.67%" y1="16.67%" y2="75%"><stop offset="0%" stop-color="#37AEE2"/><stop offset="100%" stop-color="#1E96C8"/></linearGradient><linearGradient id="linearGradient-2" x1="65.97%" x2="85.12%" y1="43.69%" y2="80.24%"><stop offset="0%" stop-color="#EFF7FC"/><stop offset="100%" stop-color="#FFF"/></linearGradient></defs><circle cx="8" cy="8" r="8" fill="url(#linearGradient-1)"/><path fill="#C8DAEA" d="M6.53333333,11.6666667 C6.27416,11.6666667 6.3182,11.5688067 6.22881333,11.3220333 L5.46666667,8.81372667 L11.3333333,5.33333333"/><path fill="#A9C9DD" d="M6.53333333,11.6666667 C6.73333333,11.6666667 6.8217,11.5752 6.93333333,11.4666667 L8,10.4294667 L6.66946667,9.62713333"/><path fill="url(#linearGradient-2)" d="M6.66933333,9.62733333 L9.89333333,12.0092667 C10.2612333,12.21226 10.52676,12.10716 10.6184,11.6677 L11.9307333,5.4835 C12.0650933,4.94482 11.7253933,4.7005 11.37344,4.86028667 L3.66744,7.83168667 C3.14143333,8.04266667 3.1445,8.33612667 3.57156,8.46688667 L5.54909333,9.08410667 L10.1272933,6.19577333 C10.34342,6.06471333 10.54178,6.135174 10.3789733,6.27966667"/></svg>