<svg xmlns="http://www.w3.org/2000/svg" xmlns:xlink="http://www.w3.org/1999/xlink" viewBox="0 0 92 92"><defs><path id="a" d="M1 1h90v90H1z"/></defs><clipPath id="b"><use xlink:href="#a" overflow="visible"/></clipPath><g clip-path="url(#b)"><defs><path id="c" d="M-119-555h1440V469H-119z"/></defs><clipPath id="d"><use xlink:href="#c" overflow="visible"/></clipPath><g clip-path="url(#d)"><defs><path id="e" d="M1 1h90v90H1z"/></defs><clipPath id="f"><use xlink:href="#e" overflow="visible"/></clipPath><g clip-path="url(#f)"><defs><path id="g" d="M91 46c0 24.9-20.1 45-45 45S1 70.9 1 46 21.1 1 46 1s45 20.1 45 45"/></defs><clipPath id="h"><use xlink:href="#g" overflow="visible"/></clipPath><g clip-path="url(#h)"><defs><path id="i" d="M1 1h90v90H1z"/></defs><clipPath id="j"><use xlink:href="#i" overflow="visible"/></clipPath><path clip-path="url(#j)" fill="#3A4EFF" d="M-4-4H96V96H-4z"/></g></g></g></g><g><defs><path id="k" d="M48.7 46L35.5 31.5h25v29h-25L48.7 46zM27.5 27.5L44.2 46 27.5 64.5h37v-37h-37z"/></defs><clipPath id="l"><use xlink:href="#k" overflow="visible"/></clipPath><g clip-path="url(#l)"><defs><path id="m" d="M-119.5-555.5h1440v1024h-1440z"/></defs><clipPath id="n"><use xlink:href="#m" overflow="visible"/></clipPath><path clip-path="url(#n)" fill="#FFF" d="M22.5 22.5h47v47h-47z"/></g></g></svg>