<svg xmlns="http://www.w3.org/2000/svg" xmlns:svg="http://www.w3.org/2000/svg" xmlns:xlink="http://www.w3.org/1999/xlink" id="svg2" x="0" y="0" enable-background="new 1432.6 619.2 456.1 512" version="1.1" viewBox="1432.6 619.2 456.1 512" xml:space="preserve"><g id="layer1" transform="matrix(3.32199,0,0,3.32199,710.49102,-3457.6137)"><path id="path2974" fill="#FDBB30" d="M286,1279.1c3.6,0,6.6-1.9,7-4.3l3.6-40.3 c0-4-4.7-7.3-10.5-7.3c-5.9,0-10.5,3.3-10.5,7.3l3.6,40.3C279.5,1277.2,282.4,1279.1,286,1279.1L286,1279.1"/><path id="path2976" fill="#FDBB30" d="M264.2,1291.7c1.8-3.1,1.7-6.6-0.2-8.2l-33.1-23.2 c-3.4-2-8.6,0.4-11.5,5.5c-2.9,5.1-2.4,10.8,1,12.7l36.7,17.1C259.3,1296.4,262.4,1294.8,264.2,1291.7L264.2,1291.7"/><path id="path2978" fill="#FDBB30" d="M307.8,1291.7c1.8,3.1,4.9,4.8,7.2,3.9l36.7-17.1 c3.5-2,4-7.7,1-12.7c-2.9-5.1-8.1-7.5-11.6-5.5l-33.1,23.2C306.2,1285.1,306,1288.6,307.8,1291.7L307.8,1291.7"/><path id="path2980" fill="#FDBB30" d="M286,1329.5c3.6,0,6.6,1.9,7,4.3l3.6,40.3 c0,4-4.7,7.3-10.5,7.3c-5.9,0-10.5-3.3-10.5-7.3l3.6-40.3C279.5,1331.3,282.4,1329.5,286,1329.5L286,1329.5"/><path id="path2982" fill="#FDBB30" d="M307.8,1316.9c1.8-3.1,4.9-4.8,7.2-3.9l36.7,17.1 c3.5,2,4,7.7,1,12.8c-2.9,5.1-8.1,7.5-11.6,5.5l-33.1-23.2C306.2,1323.5,306,1320,307.8,1316.9L307.8,1316.9"/><path id="path2984" fill="#FDBB30" d="M264.2,1316.9c1.8,3.1,1.7,6.6-0.2,8.2l-33.1,23.2 c-3.4,2-8.6-0.4-11.5-5.5c-2.9-5.1-2.4-10.8,1-12.8L257,1313C259.3,1312.1,262.4,1313.7,264.2,1316.9L264.2,1316.9"/></g></svg>