<svg xmlns="http://www.w3.org/2000/svg" width="2500" height="2500" viewBox="0 0 70.751 70.751" xmlns:v="https://vecta.io/nano"><path d="M0 0h70.75v70.75H0V0z" fill="#cd1309"/><path d="M16.172 41.744c0-.81-.1-1.516-.404-2.123-.404-.506-1.112-.605-2.224-.605h-2.527v3.03h.81c1.213 0 1.415-.303 1.415-1.818h1.01v5.054h-1.01c0-1.72-.202-2.123-1.415-2.123h-.81v2.63c0 .9.1.9 1.01.9h1.112v1.21H6.974V46.7h.606c.81 0 1.112-.103 1.112-.9v-5.965c0-.808-.304-.908-1.112-.908h-.606v-1.11h10.3v3.94l-1.112-.002zM39.42 45.08h-.91c0 1.11 0 1.617-.607 1.617-.303 0-.605-.305-.605-.9v-.506c-.102-1.414-.404-2.02-2.123-2.527 1.92-.2 3.032-1.11 3.032-2.525 0-1.72-1.213-2.426-3.74-2.426h-6.974v1.11h.8c.9 0 1.01.102 1.01.908v5.965c0 .707-.404.9-1.01.9h-.708c-.606 0-.9-.203-1.213-.9l-3.234-7.984H20.72l-3.438 7.984c-.303.707-.505.9-1.313.9h-.404v1.21h5.256v-1.21H19.71c-.505 0-.81 0-.81-.305 0-.103.1-.304.202-.507l.505-1.213h3.84l.505 1.113c.1.2.1.403.1.504 0 .406-.303.406-.81.406h-1.112v1.21h11.42v-1.21h-.9c-.9 0-1.01 0-1.01-.9v-2.63h1.01c1.718 0 2.224.305 2.325 2.02v1.11c.1 1.416 1.01 1.82 2.425 1.82 1.213 0 2.02-.707 2.02-2.63l.004-.4zm-19.406-1.618l1.617-3.842 1.516 3.842h-3.133zm13.746-1.517l-2.123.102v-3.133h2.123c1.415 0 2.123.404 2.123 1.516v.103c-.001 1.008-.708 1.412-2.123 1.412zm14.656-.9c-.506-1.516-1.517-2.223-3.134-2.223s-2.932 1.313-2.932 3.94 1.012 3.943 2.932 4.043c1.314 0 2.527-.707 2.527-1.817v-.607c0-.707-.102-.707-1.11-.707h-.506v-1.11h4.75v1.11h-.403c-.707 0-.8 0-.8.81v3.336h-.9l-.506-.81c-.9.707-2.224 1.11-3.437 1.11-1.415 0-2.526-.506-3.437-1.517-1-1.012-1.617-2.325-1.617-3.842 0-1.617.506-2.83 1.517-3.84.9-.9 2.224-1.313 3.64-1.313 1.1 0 2.426.303 3.133 1.1l.504-1.1h.81v3.436h-1.01zm9.196 6.974c-3.334 0-5.963-2.02-5.963-5.256 0-3.133 2.63-5.153 5.963-5.153s5.863 2.02 5.863 5.256c.001 3.132-2.527 5.153-5.863 5.153zm3.437-5.154c0-3.64-2.426-4.043-3.437-4.043-1.92 0-3.438 1.416-3.438 4.043s1.518 4.043 3.438 4.043c1.012 0 3.437-.505 3.437-4.043zM41.744 30.827c-.303.606-1.012.708-2.225.708h-2.526v-6.772c0-.808.202-.9 1.213-.9h.708V22.64H32.85v1.213h.505c.9 0 1.415 0 1.415.9v5.964c0 .808-.404.91-1.314.91h-.506v1.112h10.412v-4.043H42.15c-.001.91-.102 1.516-.405 2.122zm-13.24.708H25.27v-3.437h.708c1.213 0 1.415.202 1.516 1.92h1.112v-5.054h-1.112c-.1 1.516-.303 1.92-1.516 1.92h-.708v-3.032h2.73c2.02 0 2.628.404 2.73 2.73h1.112v-3.94H16.88v1.213h.708c.606 0 .81.102.81.404 0 .203 0 .405-.1.81l-1.92 5.054h-.1l-2.123-5.458c-.1-.202-.1-.304-.1-.405 0-.303.202-.404.708-.404h.81V22.64H10.21v1.213h.708c.81 0 1.112.404 1.213 1.213l-2.02 5.054H10l-2.123-5.56c-.1-.1 0-.202 0-.303-.1-.303.202-.404.81-.404H9.1V22.64H4.043v1.213h.202c.708 0 1.313.404 1.617 1.314l3.032 7.58h1.82l2.224-5.56 2.325 5.56h1.82l2.83-7.682c.404-.9.606-1.213 1.516-1.213h.1c.9 0 1.415 0 1.415.9v5.964c0 .808-.505.91-1.415.91h-.606v1.112H32.04v-4.043h-1.213c-.1 2.023-.505 2.83-2.324 2.83zm24.46-2.83c0 .9-.102 1.516-.404 2.123s-1.01.708-2.224.708H47.91v-6.772c0-.808.202-.9 1.112-.9h.81V22.64h-6.166v1.213h.708c.8 0 1.212 0 1.212.9v5.964c0 .808-.303.91-1.212.91h-.203v1.112h10.007v-4.043h-1.213zm11.52 1.11c0 2.325-1.818 3.133-4.446 3.133-1.617 0-3.233-.9-3.538-1.213l-.404 1.01h-1.01v-4.043h1.213c.304 1.92 1.617 2.73 3.437 2.83 1.617.1 2.73-.303 2.83-1.415.203-1.314-1.213-1.213-2.424-1.415l-1.72-.303c-2.526-.506-3.437-1.213-3.437-2.932-.102-1.82 1.617-3.032 3.84-3.032 1.113 0 2.527.202 3.54 1.01l.505-.81h.91v3.538h-1.11c-.202-1.92-2.225-2.527-3.842-2.527-1.213.102-1.92.708-1.92 1.517s.707.9 1.617 1.112l2.123.303c2.224.404 3.84.81 3.84 3.234z" fill="#ff0"/></svg>