<svg xmlns="http://www.w3.org/2000/svg" version="1" viewBox="0 0 256 256">
	<rect rx="38.658" ry="38.658" height="256" width="256" y="0" x="0" fill="#f00"/>
	<path d="m57.553 46.523c16.117-14.423 35.013-24.569 63.917-19.323v92.898c-1.2386 4.4597-4.9542 5.451-8.1754 2.9739zm115.35 33.814c12.946 8.0871 27.436 24.252 31.541 48.056l-62.234 10.076c-3.5904-1.3638-6.2908-3.6176-5.9455-8.9183l36.64-49.213zm-28.834 79.685c-4.0142 0.90087-6.1383 3.3137-5.2026 8.1743l31.478 53.288c13.998-6.4227 27.968-21.414 34.293-43.626zm-32.329 7.4314c4.1634-0.5403 8.0512-0.62092 9.2898 3.7157l1.8573 59.455c-20.46 1.52-37.512-3.76-49.057-20.06zm-8.18-27.49c2.9739 3.5741 4.6416 7.3344 0.74292 11.891l-57.225 20.065c-6.7462-18.626-6.1285-36.12 0-52.766z" stroke-width="1.0893" fill="#fff"/>
</svg>
