<svg width="512" height="512" viewBox="0 0 512 512" fill="none" xmlns="http://www.w3.org/2000/svg">
<rect width="512" height="512" fill="white"/>
<g clip-path="url(#clip0)">
<mask id="path-1-outside-1" maskUnits="userSpaceOnUse" x="-5.95621" y="-6.14124" width="520.913" height="517.992" fill="black">
<rect fill="white" x="-5.95621" y="-6.14124" width="520.913" height="517.992"/>
<path d="M227.698 449.499C226.541 448.934 225.461 448.224 224.483 447.386C151.48 384.17 162.633 283.552 163.127 279.384L163.323 278.501C163.863 275.707 176.141 209.027 218.881 187.898C238.445 178.264 260.336 179.372 284.016 191.321C306.039 202.434 318.452 217.409 322.18 237.325C325.278 253.611 321.649 269.937 318.166 285.723C310.955 318.523 308.59 336.469 338.212 353.379C351.22 360.802 363.951 357.288 372.294 353.033C394.933 341.391 412.28 312.48 415.345 280.901C419.398 240.006 405.424 152.105 323.957 110.996C289.168 93.4408 251.534 88.682 215.248 97.1172C185.155 104.139 155.83 120.626 134.933 142.225C96.0687 182.485 78.2562 267.597 78.1089 268.382C77.7001 270.351 76.9072 272.219 75.7759 273.877C74.6446 275.536 73.1974 276.953 71.5182 278.045C69.839 279.137 67.961 279.884 65.993 280.241C64.025 280.599 62.0061 280.56 60.0531 280.127C56.0739 279.287 52.583 276.906 50.3342 273.499C48.0855 270.092 47.2594 265.931 48.0344 261.917C48.8684 258.044 67.8099 167.244 112.729 120.715C161.504 70.3659 249.893 39.3929 337.597 83.6488C378.136 104.105 409.442 137.447 428.205 180.04C442.691 213.114 449.174 250.983 445.912 283.934C441.76 326.007 418.404 363.786 386.495 380.074C365.222 390.932 342.697 390.853 323.209 379.792C272.491 350.887 281.567 309.214 288.189 278.817C294.96 247.636 297.126 232.043 270.327 218.521C255.613 211.096 243.23 210 232.545 215.282C217.957 222.52 208.181 240.408 202.556 254.132C202.497 254.275 202.438 254.418 202.38 254.56C195.272 272.046 192.199 290.924 193.392 309.776C195.218 340.064 204.712 389.892 244.504 424.363C246.031 425.664 247.287 427.256 248.199 429.047C249.111 430.839 249.66 432.795 249.816 434.801C249.972 436.808 249.731 438.826 249.108 440.738C248.484 442.651 247.489 444.42 246.181 445.944C243.917 448.497 240.88 450.229 237.538 450.871C234.197 451.514 230.739 451.031 227.698 449.499Z"/>
</mask>
<path d="M227.698 449.499C226.541 448.934 225.461 448.224 224.483 447.386C151.48 384.17 162.633 283.552 163.127 279.384L163.323 278.501C163.863 275.707 176.141 209.027 218.881 187.898C238.445 178.264 260.336 179.372 284.016 191.321C306.039 202.434 318.452 217.409 322.18 237.325C325.278 253.611 321.649 269.937 318.166 285.723C310.955 318.523 308.59 336.469 338.212 353.379C351.22 360.802 363.951 357.288 372.294 353.033C394.933 341.391 412.28 312.48 415.345 280.901C419.398 240.006 405.424 152.105 323.957 110.996C289.168 93.4408 251.534 88.682 215.248 97.1172C185.155 104.139 155.83 120.626 134.933 142.225C96.0687 182.485 78.2562 267.597 78.1089 268.382C77.7001 270.351 76.9072 272.219 75.7759 273.877C74.6446 275.536 73.1974 276.953 71.5182 278.045C69.839 279.137 67.961 279.884 65.993 280.241C64.025 280.599 62.0061 280.56 60.0531 280.127C56.0739 279.287 52.583 276.906 50.3342 273.499C48.0855 270.092 47.2594 265.931 48.0344 261.917C48.8684 258.044 67.8099 167.244 112.729 120.715C161.504 70.3659 249.893 39.3929 337.597 83.6488C378.136 104.105 409.442 137.447 428.205 180.04C442.691 213.114 449.174 250.983 445.912 283.934C441.76 326.007 418.404 363.786 386.495 380.074C365.222 390.932 342.697 390.853 323.209 379.792C272.491 350.887 281.567 309.214 288.189 278.817C294.96 247.636 297.126 232.043 270.327 218.521C255.613 211.096 243.23 210 232.545 215.282C217.957 222.52 208.181 240.408 202.556 254.132C202.497 254.275 202.438 254.418 202.38 254.56C195.272 272.046 192.199 290.924 193.392 309.776C195.218 340.064 204.712 389.892 244.504 424.363C246.031 425.664 247.287 427.256 248.199 429.047C249.111 430.839 249.66 432.795 249.816 434.801C249.972 436.808 249.731 438.826 249.108 440.738C248.484 442.651 247.489 444.42 246.181 445.944C243.917 448.497 240.88 450.229 237.538 450.871C234.197 451.514 230.739 451.031 227.698 449.499Z" fill="#010101"/>
<path d="M227.698 449.499C226.541 448.934 225.461 448.224 224.483 447.386C151.48 384.17 162.633 283.552 163.127 279.384L163.323 278.501C163.863 275.707 176.141 209.027 218.881 187.898C238.445 178.264 260.336 179.372 284.016 191.321C306.039 202.434 318.452 217.409 322.18 237.325C325.278 253.611 321.649 269.937 318.166 285.723C310.955 318.523 308.59 336.469 338.212 353.379C351.22 360.802 363.951 357.288 372.294 353.033C394.933 341.391 412.28 312.48 415.345 280.901C419.398 240.006 405.424 152.105 323.957 110.996C289.168 93.4408 251.534 88.682 215.248 97.1172C185.155 104.139 155.83 120.626 134.933 142.225C96.0687 182.485 78.2562 267.597 78.1089 268.382C77.7001 270.351 76.9072 272.219 75.7759 273.877C74.6446 275.536 73.1974 276.953 71.5182 278.045C69.839 279.137 67.961 279.884 65.993 280.241C64.025 280.599 62.0061 280.56 60.0531 280.127C56.0739 279.287 52.583 276.906 50.3342 273.499C48.0855 270.092 47.2594 265.931 48.0344 261.917C48.8684 258.044 67.8099 167.244 112.729 120.715C161.504 70.3659 249.893 39.3929 337.597 83.6488C378.136 104.105 409.442 137.447 428.205 180.04C442.691 213.114 449.174 250.983 445.912 283.934C441.76 326.007 418.404 363.786 386.495 380.074C365.222 390.932 342.697 390.853 323.209 379.792C272.491 350.887 281.567 309.214 288.189 278.817C294.96 247.636 297.126 232.043 270.327 218.521C255.613 211.096 243.23 210 232.545 215.282C217.957 222.52 208.181 240.408 202.556 254.132C202.497 254.275 202.438 254.418 202.38 254.56C195.272 272.046 192.199 290.924 193.392 309.776C195.218 340.064 204.712 389.892 244.504 424.363C246.031 425.664 247.287 427.256 248.199 429.047C249.111 430.839 249.66 432.795 249.816 434.801C249.972 436.808 249.731 438.826 249.108 440.738C248.484 442.651 247.489 444.42 246.181 445.944C243.917 448.497 240.88 450.229 237.538 450.871C234.197 451.514 230.739 451.031 227.698 449.499Z" stroke="#010101" stroke-width="4" mask="url(#path-1-outside-1)"/>
<mask id="path-2-outside-2" maskUnits="userSpaceOnUse" x="50.0881" y="73.0345" width="383.429" height="404.42" fill="black">
<rect fill="white" x="50.0881" y="73.0345" width="383.429" height="404.42"/>
<path d="M123.633 389.135C121.757 388.189 120.09 386.871 118.735 385.259C117.379 383.647 116.363 381.775 115.747 379.757C100.117 327.212 101.11 277.78 118.88 224.299L119.027 224.005C131.506 188.957 160.673 145.153 205.358 127.461C238.335 114.411 274.07 117.353 311.393 136.186C355.537 158.462 379.816 196.845 381.797 247.164C382.535 270.219 379.084 293.216 371.613 315.024C370.127 318.811 367.218 321.856 363.516 323.502C359.815 325.149 355.617 325.263 351.833 323.821C348.048 322.378 344.98 319.495 343.292 315.795C341.604 312.095 341.432 307.876 342.812 304.049C348.964 285.767 351.749 266.509 351.031 247.221C349.278 208.672 331.373 180.498 297.656 163.484C268.519 148.781 241.267 146.194 216.778 155.92C181.508 169.899 157.616 206.795 147.828 234.245C132.065 281.5 131.227 324.999 145.013 371.214C145.59 373.141 145.78 375.163 145.573 377.164C145.365 379.165 144.764 381.104 143.804 382.869C142.845 384.634 141.545 386.189 139.982 387.445C138.419 388.7 136.623 389.629 134.7 390.18C131.009 391.223 127.066 390.851 123.633 389.135Z"/>
</mask>
<path d="M123.633 389.135C121.757 388.189 120.09 386.871 118.735 385.259C117.379 383.647 116.363 381.775 115.747 379.757C100.117 327.212 101.11 277.78 118.88 224.299L119.027 224.005C131.506 188.957 160.673 145.153 205.358 127.461C238.335 114.411 274.07 117.353 311.393 136.186C355.537 158.462 379.816 196.845 381.797 247.164C382.535 270.219 379.084 293.216 371.613 315.024C370.127 318.811 367.218 321.856 363.516 323.502C359.815 325.149 355.617 325.263 351.833 323.821C348.048 322.378 344.98 319.495 343.292 315.795C341.604 312.095 341.432 307.876 342.812 304.049C348.964 285.767 351.749 266.509 351.031 247.221C349.278 208.672 331.373 180.498 297.656 163.484C268.519 148.781 241.267 146.194 216.778 155.92C181.508 169.899 157.616 206.795 147.828 234.245C132.065 281.5 131.227 324.999 145.013 371.214C145.59 373.141 145.78 375.163 145.573 377.164C145.365 379.165 144.764 381.104 143.804 382.869C142.845 384.634 141.545 386.189 139.982 387.445C138.419 388.7 136.623 389.629 134.7 390.18C131.009 391.223 127.066 390.851 123.633 389.135Z" fill="#010101"/>
<path d="M123.633 389.135C121.757 388.189 120.09 386.871 118.735 385.259C117.379 383.647 116.363 381.775 115.747 379.757C100.117 327.212 101.11 277.78 118.88 224.299L119.027 224.005C131.506 188.957 160.673 145.153 205.358 127.461C238.335 114.411 274.07 117.353 311.393 136.186C355.537 158.462 379.816 196.845 381.797 247.164C382.535 270.219 379.084 293.216 371.613 315.024C370.127 318.811 367.218 321.856 363.516 323.502C359.815 325.149 355.617 325.263 351.833 323.821C348.048 322.378 344.98 319.495 343.292 315.795C341.604 312.095 341.432 307.876 342.812 304.049C348.964 285.767 351.749 266.509 351.031 247.221C349.278 208.672 331.373 180.498 297.656 163.484C268.519 148.781 241.267 146.194 216.778 155.92C181.508 169.899 157.616 206.795 147.828 234.245C132.065 281.5 131.227 324.999 145.013 371.214C145.59 373.141 145.78 375.163 145.573 377.164C145.365 379.165 144.764 381.104 143.804 382.869C142.845 384.634 141.545 386.189 139.982 387.445C138.419 388.7 136.623 389.629 134.7 390.18C131.009 391.223 127.066 390.851 123.633 389.135Z" stroke="#010101" stroke-width="4" mask="url(#path-2-outside-2)"/>
<mask id="path-3-outside-3" maskUnits="userSpaceOnUse" x="216.415" y="239.227" width="58.9207" height="59.1962" fill="black">
<rect fill="white" x="216.415" y="239.227" width="58.9207" height="59.1962"/>
<path d="M236.887 286.055C246.575 290.943 258.368 287.007 263.228 277.263C268.088 267.519 264.174 255.657 254.487 250.769C244.799 245.88 233.006 249.817 228.146 259.561C223.286 269.305 227.2 281.167 236.887 286.055Z"/>
</mask>
<path d="M236.887 286.055C246.575 290.943 258.368 287.007 263.228 277.263C268.088 267.519 264.174 255.657 254.487 250.769C244.799 245.88 233.006 249.817 228.146 259.561C223.286 269.305 227.2 281.167 236.887 286.055Z" fill="#010101"/>
<path d="M236.887 286.055C246.575 290.943 258.368 287.007 263.228 277.263C268.088 267.519 264.174 255.657 254.487 250.769C244.799 245.88 233.006 249.817 228.146 259.561C223.286 269.305 227.2 281.167 236.887 286.055Z" stroke="#010101" stroke-width="4" mask="url(#path-3-outside-3)"/>
</g>
<defs>
<clipPath id="clip0">
<rect width="512" height="512" fill="white"/>
</clipPath>
</defs>
</svg>
