<?xml version="1.0" standalone="no"?>
<!DOCTYPE svg PUBLIC "-//W3C//DTD SVG 20010904//EN"
 "http://www.w3.org/TR/2001/REC-SVG-20010904/DTD/svg10.dtd">
<svg version="1.0" xmlns="http://www.w3.org/2000/svg"
 width="512.000000pt" height="512.000000pt" viewBox="0 0 512.000000 512.000000"
 preserveAspectRatio="xMidYMid meet">
<metadata>
Created by potrace 1.11, written by Peter Selinger 2001-2013
</metadata>
<g transform="translate(0.000000,512.000000) scale(0.100000,-0.100000)"
fill="#000000" stroke="none">
<path d="M446 5084 c-145 -35 -289 -147 -358 -280 -73 -138 -68 25 -68 -2241
0 -1443 3 -2058 11 -2095 38 -185 188 -351 379 -420 l65 -23 2080 0 2080 0 75
29 c187 71 314 211 360 393 20 77 20 112 18 2143 l-3 2065 -22 58 c-73 192
-222 329 -404 372 -93 22 -4122 21 -4213 -1z m2518 -654 c320 -62 573 -196
802 -424 175 -175 296 -368 369 -591 93 -285 91 -656 -5 -945 -132 -396 -430
-735 -804 -915 -471 -226 -1029 -197 -1476 78 l-75 46 -6 -382 c-3 -258 -9
-393 -17 -417 -17 -50 -75 -125 -124 -160 -87 -63 -220 -76 -320 -32 -65 28
-133 94 -165 161 l-28 56 -3 1040 c-3 1076 -1 1169 38 1346 55 253 188 509
358 690 98 105 157 134 267 134 67 0 89 -5 136 -28 63 -30 125 -92 161 -159
19 -36 23 -58 23 -138 0 -109 -12 -141 -91 -231 -169 -196 -242 -399 -231
-648 6 -150 26 -225 96 -366 109 -218 301 -377 546 -451 80 -24 106 -27 240
-28 128 -1 162 3 229 22 340 98 578 351 648 692 25 120 20 287 -12 400 -100
352 -406 589 -800 620 -175 13 -251 50 -321 155 -122 181 -33 420 184 491 57
19 240 11 381 -16z m-155 -1059 c121 -38 223 -127 282 -247 28 -56 33 -78 37
-162 3 -72 0 -113 -12 -154 -90 -311 -460 -438 -717 -246 -227 169 -252 494
-54 693 54 54 148 109 211 124 69 16 188 12 253 -8z"/>
</g>
</svg>
